<mxfile host="app.diagrams.net" modified="2023-11-29T18:58:01.583Z" agent="Mozilla/5.0 (X11; Linux x86_64) AppleWebKit/537.36 (KHTML, like Gecko) Chrome/119.0.0.0 Safari/537.36" etag="P-YhxhfkZQJ8Kyp85stJ" version="22.1.5" type="device">
  <diagram name="PÃ¡gina-1" id="kX1sD7oPriTX6zGmTXKx">
    <mxGraphModel dx="1389" dy="841" grid="1" gridSize="10" guides="1" tooltips="1" connect="1" arrows="1" fold="1" page="1" pageScale="1" pageWidth="1169" pageHeight="827" math="0" shadow="0">
      <root>
        <mxCell id="0" />
        <mxCell id="1" parent="0" />
        <mxCell id="ncd-dCcMfYq5TYh1mDFG-20" value="Category" style="swimlane;fontStyle=1;align=center;verticalAlign=top;childLayout=stackLayout;horizontal=1;startSize=26;horizontalStack=0;resizeParent=1;resizeParentMax=0;resizeLast=0;collapsible=1;marginBottom=0;whiteSpace=wrap;html=1;" parent="1" vertex="1">
          <mxGeometry x="80" y="820" width="230" height="140" as="geometry" />
        </mxCell>
        <mxCell id="ncd-dCcMfYq5TYh1mDFG-21" value="-id :int&lt;br&gt;-name :String" style="text;strokeColor=none;fillColor=none;align=left;verticalAlign=top;spacingLeft=4;spacingRight=4;overflow=hidden;rotatable=0;points=[[0,0.5],[1,0.5]];portConstraint=eastwest;whiteSpace=wrap;html=1;" parent="ncd-dCcMfYq5TYh1mDFG-20" vertex="1">
          <mxGeometry y="26" width="230" height="44" as="geometry" />
        </mxCell>
        <mxCell id="ncd-dCcMfYq5TYh1mDFG-22" value="" style="line;strokeWidth=1;fillColor=none;align=left;verticalAlign=middle;spacingTop=-1;spacingLeft=3;spacingRight=3;rotatable=0;labelPosition=right;points=[];portConstraint=eastwest;strokeColor=inherit;" parent="ncd-dCcMfYq5TYh1mDFG-20" vertex="1">
          <mxGeometry y="70" width="230" height="8" as="geometry" />
        </mxCell>
        <mxCell id="ncd-dCcMfYq5TYh1mDFG-23" value="+Category() :Category;&lt;br&gt;+Category(int id,String name) :Category;&lt;br&gt;+Getters and setters" style="text;strokeColor=none;fillColor=none;align=left;verticalAlign=top;spacingLeft=4;spacingRight=4;overflow=hidden;rotatable=0;points=[[0,0.5],[1,0.5]];portConstraint=eastwest;whiteSpace=wrap;html=1;" parent="ncd-dCcMfYq5TYh1mDFG-20" vertex="1">
          <mxGeometry y="78" width="230" height="62" as="geometry" />
        </mxCell>
        <mxCell id="ncd-dCcMfYq5TYh1mDFG-24" value="Price" style="swimlane;fontStyle=1;align=center;verticalAlign=top;childLayout=stackLayout;horizontal=1;startSize=26;horizontalStack=0;resizeParent=1;resizeParentMax=0;resizeLast=0;collapsible=1;marginBottom=0;whiteSpace=wrap;html=1;" parent="1" vertex="1">
          <mxGeometry x="110" y="670" width="150" height="100" as="geometry" />
        </mxCell>
        <mxCell id="ncd-dCcMfYq5TYh1mDFG-25" value="-value :float" style="text;strokeColor=none;fillColor=none;align=left;verticalAlign=top;spacingLeft=4;spacingRight=4;overflow=hidden;rotatable=0;points=[[0,0.5],[1,0.5]];portConstraint=eastwest;whiteSpace=wrap;html=1;" parent="ncd-dCcMfYq5TYh1mDFG-24" vertex="1">
          <mxGeometry y="26" width="150" height="26" as="geometry" />
        </mxCell>
        <mxCell id="ncd-dCcMfYq5TYh1mDFG-26" value="" style="line;strokeWidth=1;fillColor=none;align=left;verticalAlign=middle;spacingTop=-1;spacingLeft=3;spacingRight=3;rotatable=0;labelPosition=right;points=[];portConstraint=eastwest;strokeColor=inherit;" parent="ncd-dCcMfYq5TYh1mDFG-24" vertex="1">
          <mxGeometry y="52" width="150" height="8" as="geometry" />
        </mxCell>
        <mxCell id="ncd-dCcMfYq5TYh1mDFG-27" value="+Price(float value) :Price;&lt;br&gt;+Getters and setters" style="text;strokeColor=none;fillColor=none;align=left;verticalAlign=top;spacingLeft=4;spacingRight=4;overflow=hidden;rotatable=0;points=[[0,0.5],[1,0.5]];portConstraint=eastwest;whiteSpace=wrap;html=1;" parent="ncd-dCcMfYq5TYh1mDFG-24" vertex="1">
          <mxGeometry y="60" width="150" height="40" as="geometry" />
        </mxCell>
        <mxCell id="ncd-dCcMfYq5TYh1mDFG-28" value="Product" style="swimlane;fontStyle=1;align=center;verticalAlign=top;childLayout=stackLayout;horizontal=1;startSize=26;horizontalStack=0;resizeParent=1;resizeParentMax=0;resizeLast=0;collapsible=1;marginBottom=0;whiteSpace=wrap;html=1;" parent="1" vertex="1">
          <mxGeometry x="370" y="670" width="550" height="230" as="geometry" />
        </mxCell>
        <mxCell id="ncd-dCcMfYq5TYh1mDFG-29" value="-id :int&lt;br&gt;-name :String&lt;br&gt;-description :String&lt;br&gt;&lt;div&gt;-stock :int&lt;/div&gt;-oCost :Price&lt;br&gt;-oPrice :Price&lt;br&gt;-oCategory :Category" style="text;strokeColor=none;fillColor=none;align=left;verticalAlign=top;spacingLeft=4;spacingRight=4;overflow=hidden;rotatable=0;points=[[0,0.5],[1,0.5]];portConstraint=eastwest;whiteSpace=wrap;html=1;" parent="ncd-dCcMfYq5TYh1mDFG-28" vertex="1">
          <mxGeometry y="26" width="550" height="114" as="geometry" />
        </mxCell>
        <mxCell id="ncd-dCcMfYq5TYh1mDFG-30" value="" style="line;strokeWidth=1;fillColor=none;align=left;verticalAlign=middle;spacingTop=-1;spacingLeft=3;spacingRight=3;rotatable=0;labelPosition=right;points=[];portConstraint=eastwest;strokeColor=inherit;" parent="ncd-dCcMfYq5TYh1mDFG-28" vertex="1">
          <mxGeometry y="140" width="550" height="8" as="geometry" />
        </mxCell>
        <mxCell id="ncd-dCcMfYq5TYh1mDFG-31" value="+Product() :Product;&lt;br&gt;+Product(String name,String description,int stock,Price cost,Price price,Category category) :Product;&lt;br&gt;+Getters and setters&lt;br&gt;+isElaborated() :boolean;&lt;br&gt;+changeStock(int modification) :boolean;" style="text;strokeColor=none;fillColor=none;align=left;verticalAlign=top;spacingLeft=4;spacingRight=4;overflow=hidden;rotatable=0;points=[[0,0.5],[1,0.5]];portConstraint=eastwest;whiteSpace=wrap;html=1;" parent="ncd-dCcMfYq5TYh1mDFG-28" vertex="1">
          <mxGeometry y="148" width="550" height="82" as="geometry" />
        </mxCell>
        <mxCell id="ncd-dCcMfYq5TYh1mDFG-32" value="Waiter" style="swimlane;fontStyle=1;align=center;verticalAlign=top;childLayout=stackLayout;horizontal=1;startSize=26;horizontalStack=0;resizeParent=1;resizeParentMax=0;resizeLast=0;collapsible=1;marginBottom=0;whiteSpace=wrap;html=1;" parent="1" vertex="1">
          <mxGeometry x="3130" y="687" width="290" height="140" as="geometry" />
        </mxCell>
        <mxCell id="ncd-dCcMfYq5TYh1mDFG-33" value="-id :int&lt;br&gt;-name :String&lt;br&gt;-lastName :string" style="text;strokeColor=none;fillColor=none;align=left;verticalAlign=top;spacingLeft=4;spacingRight=4;overflow=hidden;rotatable=0;points=[[0,0.5],[1,0.5]];portConstraint=eastwest;whiteSpace=wrap;html=1;" parent="ncd-dCcMfYq5TYh1mDFG-32" vertex="1">
          <mxGeometry y="26" width="290" height="54" as="geometry" />
        </mxCell>
        <mxCell id="ncd-dCcMfYq5TYh1mDFG-34" value="" style="line;strokeWidth=1;fillColor=none;align=left;verticalAlign=middle;spacingTop=-1;spacingLeft=3;spacingRight=3;rotatable=0;labelPosition=right;points=[];portConstraint=eastwest;strokeColor=inherit;" parent="ncd-dCcMfYq5TYh1mDFG-32" vertex="1">
          <mxGeometry y="80" width="290" height="8" as="geometry" />
        </mxCell>
        <mxCell id="ncd-dCcMfYq5TYh1mDFG-35" value="+Waiter() :Waiter;&lt;br&gt;+Waiter(String name,String lastName) :Waiter;&lt;br&gt;+Getters and setters" style="text;strokeColor=none;fillColor=none;align=left;verticalAlign=top;spacingLeft=4;spacingRight=4;overflow=hidden;rotatable=0;points=[[0,0.5],[1,0.5]];portConstraint=eastwest;whiteSpace=wrap;html=1;" parent="ncd-dCcMfYq5TYh1mDFG-32" vertex="1">
          <mxGeometry y="88" width="290" height="52" as="geometry" />
        </mxCell>
        <mxCell id="ncd-dCcMfYq5TYh1mDFG-36" value="Item" style="swimlane;fontStyle=1;align=center;verticalAlign=top;childLayout=stackLayout;horizontal=1;startSize=26;horizontalStack=0;resizeParent=1;resizeParentMax=0;resizeLast=0;collapsible=1;marginBottom=0;whiteSpace=wrap;html=1;" parent="1" vertex="1">
          <mxGeometry x="1240" y="670" width="430" height="150" as="geometry" />
        </mxCell>
        <mxCell id="ncd-dCcMfYq5TYh1mDFG-37" value="-oProduct :Product&lt;br&gt;-idOrder :int&lt;br&gt;-totalProduct :int&lt;br&gt;-individualPrice :float" style="text;strokeColor=none;fillColor=none;align=left;verticalAlign=top;spacingLeft=4;spacingRight=4;overflow=hidden;rotatable=0;points=[[0,0.5],[1,0.5]];portConstraint=eastwest;whiteSpace=wrap;html=1;" parent="ncd-dCcMfYq5TYh1mDFG-36" vertex="1">
          <mxGeometry y="26" width="430" height="64" as="geometry" />
        </mxCell>
        <mxCell id="prmoluB_tdKV2MAW_gco-20" value="" style="endArrow=diamondThin;endFill=0;endSize=24;html=1;rounded=0;exitX=1;exitY=0.5;exitDx=0;exitDy=0;entryX=-0.01;entryY=0.298;entryDx=0;entryDy=0;entryPerimeter=0;" parent="ncd-dCcMfYq5TYh1mDFG-36" source="ncd-dCcMfYq5TYh1mDFG-37" target="ncd-dCcMfYq5TYh1mDFG-41" edge="1">
          <mxGeometry width="160" relative="1" as="geometry">
            <mxPoint x="420" y="30" as="sourcePoint" />
            <mxPoint x="580" y="30" as="targetPoint" />
            <Array as="points" />
          </mxGeometry>
        </mxCell>
        <mxCell id="ncd-dCcMfYq5TYh1mDFG-38" value="" style="line;strokeWidth=1;fillColor=none;align=left;verticalAlign=middle;spacingTop=-1;spacingLeft=3;spacingRight=3;rotatable=0;labelPosition=right;points=[];portConstraint=eastwest;strokeColor=inherit;" parent="ncd-dCcMfYq5TYh1mDFG-36" vertex="1">
          <mxGeometry y="90" width="430" height="8" as="geometry" />
        </mxCell>
        <mxCell id="ncd-dCcMfYq5TYh1mDFG-39" value="+Item(Product oProduct,int idOrder,int totalProduct,float individualPrice) :Item;&lt;br&gt;+Getters and settes&lt;br&gt;+CalculatePrice() :float" style="text;strokeColor=none;fillColor=none;align=left;verticalAlign=top;spacingLeft=4;spacingRight=4;overflow=hidden;rotatable=0;points=[[0,0.5],[1,0.5]];portConstraint=eastwest;whiteSpace=wrap;html=1;" parent="ncd-dCcMfYq5TYh1mDFG-36" vertex="1">
          <mxGeometry y="98" width="430" height="52" as="geometry" />
        </mxCell>
        <mxCell id="ncd-dCcMfYq5TYh1mDFG-40" value="Order" style="swimlane;fontStyle=1;align=center;verticalAlign=top;childLayout=stackLayout;horizontal=1;startSize=26;horizontalStack=0;resizeParent=1;resizeParentMax=0;resizeLast=0;collapsible=1;marginBottom=0;whiteSpace=wrap;html=1;" parent="1" vertex="1">
          <mxGeometry x="1920" y="670" width="310" height="270" as="geometry" />
        </mxCell>
        <mxCell id="ncd-dCcMfYq5TYh1mDFG-41" value="-id :int&lt;br&gt;-oWaiter :Waiter&lt;br&gt;-idTable :int&lt;br&gt;-cutlery :int&lt;br&gt;-dateOpen :Date&lt;br&gt;-dateClose :Date&lt;br&gt;-items :List&amp;lt;Item&amp;gt;" style="text;strokeColor=none;fillColor=none;align=left;verticalAlign=top;spacingLeft=4;spacingRight=4;overflow=hidden;rotatable=0;points=[[0,0.5],[1,0.5]];portConstraint=eastwest;whiteSpace=wrap;html=1;" parent="ncd-dCcMfYq5TYh1mDFG-40" vertex="1">
          <mxGeometry y="26" width="310" height="114" as="geometry" />
        </mxCell>
        <mxCell id="ncd-dCcMfYq5TYh1mDFG-42" value="" style="line;strokeWidth=1;fillColor=none;align=left;verticalAlign=middle;spacingTop=-1;spacingLeft=3;spacingRight=3;rotatable=0;labelPosition=right;points=[];portConstraint=eastwest;strokeColor=inherit;" parent="ncd-dCcMfYq5TYh1mDFG-40" vertex="1">
          <mxGeometry y="140" width="310" height="8" as="geometry" />
        </mxCell>
        <mxCell id="ncd-dCcMfYq5TYh1mDFG-43" value="+Order() :Order;&lt;br&gt;+Order(int cutlery,Waiter oWaiter,int idTable) :Order;&lt;br&gt;+Getters and setters&lt;br&gt;+addItem(Item item) :void;&lt;br&gt;+removeItem(int index) :void;&lt;br&gt;+getItem(int index) :Item;&lt;br&gt;+calculateTotalPrice() :float;" style="text;strokeColor=none;fillColor=none;align=left;verticalAlign=top;spacingLeft=4;spacingRight=4;overflow=hidden;rotatable=0;points=[[0,0.5],[1,0.5]];portConstraint=eastwest;whiteSpace=wrap;html=1;" parent="ncd-dCcMfYq5TYh1mDFG-40" vertex="1">
          <mxGeometry y="148" width="310" height="122" as="geometry" />
        </mxCell>
        <mxCell id="ncd-dCcMfYq5TYh1mDFG-45" value="Table" style="swimlane;fontStyle=1;align=center;verticalAlign=top;childLayout=stackLayout;horizontal=1;startSize=26;horizontalStack=0;resizeParent=1;resizeParentMax=0;resizeLast=0;collapsible=1;marginBottom=0;whiteSpace=wrap;html=1;" parent="1" vertex="1">
          <mxGeometry x="2585" y="720" width="280" height="170" as="geometry" />
        </mxCell>
        <mxCell id="ncd-dCcMfYq5TYh1mDFG-46" value="-id :int&lt;br&gt;-name :String&lt;br&gt;-oOrder :Order" style="text;strokeColor=none;fillColor=none;align=left;verticalAlign=top;spacingLeft=4;spacingRight=4;overflow=hidden;rotatable=0;points=[[0,0.5],[1,0.5]];portConstraint=eastwest;whiteSpace=wrap;html=1;" parent="ncd-dCcMfYq5TYh1mDFG-45" vertex="1">
          <mxGeometry y="26" width="280" height="54" as="geometry" />
        </mxCell>
        <mxCell id="ncd-dCcMfYq5TYh1mDFG-47" value="" style="line;strokeWidth=1;fillColor=none;align=left;verticalAlign=middle;spacingTop=-1;spacingLeft=3;spacingRight=3;rotatable=0;labelPosition=right;points=[];portConstraint=eastwest;strokeColor=inherit;" parent="ncd-dCcMfYq5TYh1mDFG-45" vertex="1">
          <mxGeometry y="80" width="280" height="8" as="geometry" />
        </mxCell>
        <mxCell id="ncd-dCcMfYq5TYh1mDFG-48" value="+Table() :Table;&lt;br&gt;+Table(int id,String name) :Table;&lt;br&gt;+Getters and setters&lt;br&gt;+startNewOrder(int cutlery,int idWaiter) :void;&lt;br&gt;+endCurrentOrder() :void;" style="text;strokeColor=none;fillColor=none;align=left;verticalAlign=top;spacingLeft=4;spacingRight=4;overflow=hidden;rotatable=0;points=[[0,0.5],[1,0.5]];portConstraint=eastwest;whiteSpace=wrap;html=1;" parent="ncd-dCcMfYq5TYh1mDFG-45" vertex="1">
          <mxGeometry y="88" width="280" height="82" as="geometry" />
        </mxCell>
        <mxCell id="ncd-dCcMfYq5TYh1mDFG-51" value="DAOException" style="html=1;whiteSpace=wrap;" parent="1" vertex="1">
          <mxGeometry x="1240" y="1582" width="130" height="40" as="geometry" />
        </mxCell>
        <mxCell id="ncd-dCcMfYq5TYh1mDFG-52" value="DAOInterface&amp;lt;T&amp;gt;" style="swimlane;fontStyle=1;align=center;verticalAlign=top;childLayout=stackLayout;horizontal=1;startSize=26;horizontalStack=0;resizeParent=1;resizeParentMax=0;resizeLast=0;collapsible=1;marginBottom=0;whiteSpace=wrap;html=1;" parent="1" vertex="1">
          <mxGeometry x="1560" y="1510" width="180" height="140" as="geometry" />
        </mxCell>
        <mxCell id="ncd-dCcMfYq5TYh1mDFG-54" value="" style="line;strokeWidth=1;fillColor=none;align=left;verticalAlign=middle;spacingTop=-1;spacingLeft=3;spacingRight=3;rotatable=0;labelPosition=right;points=[];portConstraint=eastwest;strokeColor=inherit;" parent="ncd-dCcMfYq5TYh1mDFG-52" vertex="1">
          <mxGeometry y="26" width="180" height="8" as="geometry" />
        </mxCell>
        <mxCell id="ncd-dCcMfYq5TYh1mDFG-55" value="+save(T t) :void;&lt;br&gt;+update(T t) :void;&lt;br&gt;+delete(T t) :void;&lt;br&gt;+byId(int id) :T;&lt;br&gt;+listAll() :List&amp;lt;T&amp;gt;;&lt;br&gt;+createDTO(ResultSet res): T;" style="text;strokeColor=none;fillColor=none;align=left;verticalAlign=top;spacingLeft=4;spacingRight=4;overflow=hidden;rotatable=0;points=[[0,0.5],[1,0.5]];portConstraint=eastwest;whiteSpace=wrap;html=1;" parent="ncd-dCcMfYq5TYh1mDFG-52" vertex="1">
          <mxGeometry y="34" width="180" height="106" as="geometry" />
        </mxCell>
        <mxCell id="ncd-dCcMfYq5TYh1mDFG-56" value="DAOCategorySQL" style="swimlane;fontStyle=1;align=center;verticalAlign=top;childLayout=stackLayout;horizontal=1;startSize=26;horizontalStack=0;resizeParent=1;resizeParentMax=0;resizeLast=0;collapsible=1;marginBottom=0;whiteSpace=wrap;html=1;" parent="1" vertex="1">
          <mxGeometry x="120" y="1200" width="350" height="70" as="geometry" />
        </mxCell>
        <mxCell id="ncd-dCcMfYq5TYh1mDFG-58" value="" style="line;strokeWidth=1;fillColor=none;align=left;verticalAlign=middle;spacingTop=-1;spacingLeft=3;spacingRight=3;rotatable=0;labelPosition=right;points=[];portConstraint=eastwest;strokeColor=inherit;" parent="ncd-dCcMfYq5TYh1mDFG-56" vertex="1">
          <mxGeometry y="26" width="350" height="8" as="geometry" />
        </mxCell>
        <mxCell id="ncd-dCcMfYq5TYh1mDFG-59" value="-connect() :Connection;&lt;br&gt;-convertToList(ResultSet res,List&amp;lt;DTOCategory&amp;gt; output) :void;" style="text;strokeColor=none;fillColor=none;align=left;verticalAlign=top;spacingLeft=4;spacingRight=4;overflow=hidden;rotatable=0;points=[[0,0.5],[1,0.5]];portConstraint=eastwest;whiteSpace=wrap;html=1;" parent="ncd-dCcMfYq5TYh1mDFG-56" vertex="1">
          <mxGeometry y="34" width="350" height="36" as="geometry" />
        </mxCell>
        <mxCell id="ncd-dCcMfYq5TYh1mDFG-60" value="DAOWaiterSQL" style="swimlane;fontStyle=1;align=center;verticalAlign=top;childLayout=stackLayout;horizontal=1;startSize=26;horizontalStack=0;resizeParent=1;resizeParentMax=0;resizeLast=0;collapsible=1;marginBottom=0;whiteSpace=wrap;html=1;" parent="1" vertex="1">
          <mxGeometry x="3020" y="1190" width="330" height="70" as="geometry" />
        </mxCell>
        <mxCell id="ncd-dCcMfYq5TYh1mDFG-61" value="" style="line;strokeWidth=1;fillColor=none;align=left;verticalAlign=middle;spacingTop=-1;spacingLeft=3;spacingRight=3;rotatable=0;labelPosition=right;points=[];portConstraint=eastwest;strokeColor=inherit;" parent="ncd-dCcMfYq5TYh1mDFG-60" vertex="1">
          <mxGeometry y="26" width="330" height="8" as="geometry" />
        </mxCell>
        <mxCell id="ncd-dCcMfYq5TYh1mDFG-62" value="-connect() :Connection;&lt;br&gt;-convertToList(ResultSet res,List&amp;lt;DTOWaiter&amp;gt;&amp;nbsp;output) :void;" style="text;strokeColor=none;fillColor=none;align=left;verticalAlign=top;spacingLeft=4;spacingRight=4;overflow=hidden;rotatable=0;points=[[0,0.5],[1,0.5]];portConstraint=eastwest;whiteSpace=wrap;html=1;" parent="ncd-dCcMfYq5TYh1mDFG-60" vertex="1">
          <mxGeometry y="34" width="330" height="36" as="geometry" />
        </mxCell>
        <mxCell id="ncd-dCcMfYq5TYh1mDFG-63" value="DAOItemSQL" style="swimlane;fontStyle=1;align=center;verticalAlign=top;childLayout=stackLayout;horizontal=1;startSize=26;horizontalStack=0;resizeParent=1;resizeParentMax=0;resizeLast=0;collapsible=1;marginBottom=0;whiteSpace=wrap;html=1;" parent="1" vertex="1">
          <mxGeometry x="1820" y="1200" width="320" height="70" as="geometry" />
        </mxCell>
        <mxCell id="ncd-dCcMfYq5TYh1mDFG-64" value="" style="line;strokeWidth=1;fillColor=none;align=left;verticalAlign=middle;spacingTop=-1;spacingLeft=3;spacingRight=3;rotatable=0;labelPosition=right;points=[];portConstraint=eastwest;strokeColor=inherit;" parent="ncd-dCcMfYq5TYh1mDFG-63" vertex="1">
          <mxGeometry y="26" width="320" height="8" as="geometry" />
        </mxCell>
        <mxCell id="ncd-dCcMfYq5TYh1mDFG-65" value="-connect() :Connection;&lt;br&gt;-convertToList(ResultSet res,List&amp;lt;DTOItem&amp;gt; output) :void;" style="text;strokeColor=none;fillColor=none;align=left;verticalAlign=top;spacingLeft=4;spacingRight=4;overflow=hidden;rotatable=0;points=[[0,0.5],[1,0.5]];portConstraint=eastwest;whiteSpace=wrap;html=1;" parent="ncd-dCcMfYq5TYh1mDFG-63" vertex="1">
          <mxGeometry y="34" width="320" height="36" as="geometry" />
        </mxCell>
        <mxCell id="ncd-dCcMfYq5TYh1mDFG-66" value="DAOProductSQL" style="swimlane;fontStyle=1;align=center;verticalAlign=top;childLayout=stackLayout;horizontal=1;startSize=26;horizontalStack=0;resizeParent=1;resizeParentMax=0;resizeLast=0;collapsible=1;marginBottom=0;whiteSpace=wrap;html=1;" parent="1" vertex="1">
          <mxGeometry x="510" y="1200" width="340" height="70" as="geometry" />
        </mxCell>
        <mxCell id="ncd-dCcMfYq5TYh1mDFG-67" value="" style="line;strokeWidth=1;fillColor=none;align=left;verticalAlign=middle;spacingTop=-1;spacingLeft=3;spacingRight=3;rotatable=0;labelPosition=right;points=[];portConstraint=eastwest;strokeColor=inherit;" parent="ncd-dCcMfYq5TYh1mDFG-66" vertex="1">
          <mxGeometry y="26" width="340" height="8" as="geometry" />
        </mxCell>
        <mxCell id="ncd-dCcMfYq5TYh1mDFG-68" value="-connect() :Connection;&lt;br&gt;-convertToList(ResultSet res,List&amp;lt;DTOProduct&amp;gt; output) :void;" style="text;strokeColor=none;fillColor=none;align=left;verticalAlign=top;spacingLeft=4;spacingRight=4;overflow=hidden;rotatable=0;points=[[0,0.5],[1,0.5]];portConstraint=eastwest;whiteSpace=wrap;html=1;" parent="ncd-dCcMfYq5TYh1mDFG-66" vertex="1">
          <mxGeometry y="34" width="340" height="36" as="geometry" />
        </mxCell>
        <mxCell id="ncd-dCcMfYq5TYh1mDFG-74" value="DAOOrderSQL" style="swimlane;fontStyle=1;align=center;verticalAlign=top;childLayout=stackLayout;horizontal=1;startSize=26;horizontalStack=0;resizeParent=1;resizeParentMax=0;resizeLast=0;collapsible=1;marginBottom=0;whiteSpace=wrap;html=1;" parent="1" vertex="1">
          <mxGeometry x="2180" y="1200" width="330" height="70" as="geometry" />
        </mxCell>
        <mxCell id="ncd-dCcMfYq5TYh1mDFG-75" value="" style="line;strokeWidth=1;fillColor=none;align=left;verticalAlign=middle;spacingTop=-1;spacingLeft=3;spacingRight=3;rotatable=0;labelPosition=right;points=[];portConstraint=eastwest;strokeColor=inherit;" parent="ncd-dCcMfYq5TYh1mDFG-74" vertex="1">
          <mxGeometry y="26" width="330" height="8" as="geometry" />
        </mxCell>
        <mxCell id="ncd-dCcMfYq5TYh1mDFG-76" value="-connect() :Connection;&lt;br&gt;-convertToList(ResultSet res,List&amp;lt;DTOOrder&amp;gt; output) :void;" style="text;strokeColor=none;fillColor=none;align=left;verticalAlign=top;spacingLeft=4;spacingRight=4;overflow=hidden;rotatable=0;points=[[0,0.5],[1,0.5]];portConstraint=eastwest;whiteSpace=wrap;html=1;" parent="ncd-dCcMfYq5TYh1mDFG-74" vertex="1">
          <mxGeometry y="34" width="330" height="36" as="geometry" />
        </mxCell>
        <mxCell id="ncd-dCcMfYq5TYh1mDFG-77" value="DAOTableSQL" style="swimlane;fontStyle=1;align=center;verticalAlign=top;childLayout=stackLayout;horizontal=1;startSize=26;horizontalStack=0;resizeParent=1;resizeParentMax=0;resizeLast=0;collapsible=1;marginBottom=0;whiteSpace=wrap;html=1;" parent="1" vertex="1">
          <mxGeometry x="2585" y="1190" width="330" height="70" as="geometry" />
        </mxCell>
        <mxCell id="ncd-dCcMfYq5TYh1mDFG-78" value="" style="line;strokeWidth=1;fillColor=none;align=left;verticalAlign=middle;spacingTop=-1;spacingLeft=3;spacingRight=3;rotatable=0;labelPosition=right;points=[];portConstraint=eastwest;strokeColor=inherit;" parent="ncd-dCcMfYq5TYh1mDFG-77" vertex="1">
          <mxGeometry y="26" width="330" height="8" as="geometry" />
        </mxCell>
        <mxCell id="ncd-dCcMfYq5TYh1mDFG-79" value="-connect() :Connection;&lt;br&gt;-convertToList(ResultSet res,List&amp;lt;DTOTable&amp;gt; output) :void;" style="text;strokeColor=none;fillColor=none;align=left;verticalAlign=top;spacingLeft=4;spacingRight=4;overflow=hidden;rotatable=0;points=[[0,0.5],[1,0.5]];portConstraint=eastwest;whiteSpace=wrap;html=1;" parent="ncd-dCcMfYq5TYh1mDFG-77" vertex="1">
          <mxGeometry y="34" width="330" height="36" as="geometry" />
        </mxCell>
        <mxCell id="ncd-dCcMfYq5TYh1mDFG-80" value="DTOCategory" style="swimlane;fontStyle=1;align=center;verticalAlign=top;childLayout=stackLayout;horizontal=1;startSize=26;horizontalStack=0;resizeParent=1;resizeParentMax=0;resizeLast=0;collapsible=1;marginBottom=0;whiteSpace=wrap;html=1;" parent="1" vertex="1">
          <mxGeometry x="20" y="1315" width="280" height="170" as="geometry" />
        </mxCell>
        <mxCell id="ncd-dCcMfYq5TYh1mDFG-81" value="-id :int&lt;br&gt;-name :String" style="text;strokeColor=none;fillColor=none;align=left;verticalAlign=top;spacingLeft=4;spacingRight=4;overflow=hidden;rotatable=0;points=[[0,0.5],[1,0.5]];portConstraint=eastwest;whiteSpace=wrap;html=1;" parent="ncd-dCcMfYq5TYh1mDFG-80" vertex="1">
          <mxGeometry y="26" width="280" height="34" as="geometry" />
        </mxCell>
        <mxCell id="ncd-dCcMfYq5TYh1mDFG-82" value="" style="line;strokeWidth=1;fillColor=none;align=left;verticalAlign=middle;spacingTop=-1;spacingLeft=3;spacingRight=3;rotatable=0;labelPosition=right;points=[];portConstraint=eastwest;strokeColor=inherit;" parent="ncd-dCcMfYq5TYh1mDFG-80" vertex="1">
          <mxGeometry y="60" width="280" height="8" as="geometry" />
        </mxCell>
        <mxCell id="ncd-dCcMfYq5TYh1mDFG-83" value="+DTOCategory() :DTOCategory;&lt;br&gt;+DTOCategory(int id,String name) :DTOCategory;&lt;br&gt;+Getters and setters&lt;br&gt;+hashCode() :int;&lt;br&gt;+equals(Object obj) :boolean;&lt;br&gt;+toString() :String;" style="text;strokeColor=none;fillColor=none;align=left;verticalAlign=top;spacingLeft=4;spacingRight=4;overflow=hidden;rotatable=0;points=[[0,0.5],[1,0.5]];portConstraint=eastwest;whiteSpace=wrap;html=1;" parent="ncd-dCcMfYq5TYh1mDFG-80" vertex="1">
          <mxGeometry y="68" width="280" height="102" as="geometry" />
        </mxCell>
        <mxCell id="ncd-dCcMfYq5TYh1mDFG-85" value="DTOWaiter" style="swimlane;fontStyle=1;align=center;verticalAlign=top;childLayout=stackLayout;horizontal=1;startSize=26;horizontalStack=0;resizeParent=1;resizeParentMax=0;resizeLast=0;collapsible=1;marginBottom=0;whiteSpace=wrap;html=1;" parent="1" vertex="1">
          <mxGeometry x="3130" y="1285" width="370" height="190" as="geometry" />
        </mxCell>
        <mxCell id="ncd-dCcMfYq5TYh1mDFG-86" value="-id :int&lt;br&gt;-name :String&lt;br&gt;-lastName :String" style="text;strokeColor=none;fillColor=none;align=left;verticalAlign=top;spacingLeft=4;spacingRight=4;overflow=hidden;rotatable=0;points=[[0,0.5],[1,0.5]];portConstraint=eastwest;whiteSpace=wrap;html=1;" parent="ncd-dCcMfYq5TYh1mDFG-85" vertex="1">
          <mxGeometry y="26" width="370" height="54" as="geometry" />
        </mxCell>
        <mxCell id="ncd-dCcMfYq5TYh1mDFG-87" value="" style="line;strokeWidth=1;fillColor=none;align=left;verticalAlign=middle;spacingTop=-1;spacingLeft=3;spacingRight=3;rotatable=0;labelPosition=right;points=[];portConstraint=eastwest;strokeColor=inherit;" parent="ncd-dCcMfYq5TYh1mDFG-85" vertex="1">
          <mxGeometry y="80" width="370" height="8" as="geometry" />
        </mxCell>
        <mxCell id="ncd-dCcMfYq5TYh1mDFG-88" value="+DTOWaiter() :DTOWaiter;&lt;br&gt;+DTOWaiter(int id,String name,String lastName) :DTOWaiter;&lt;br&gt;+Getters and setters&lt;br&gt;+hashCode() :int;&lt;br&gt;+equals(Object obj) :boolean;&lt;br&gt;+toString() :String;" style="text;strokeColor=none;fillColor=none;align=left;verticalAlign=top;spacingLeft=4;spacingRight=4;overflow=hidden;rotatable=0;points=[[0,0.5],[1,0.5]];portConstraint=eastwest;whiteSpace=wrap;html=1;" parent="ncd-dCcMfYq5TYh1mDFG-85" vertex="1">
          <mxGeometry y="88" width="370" height="102" as="geometry" />
        </mxCell>
        <mxCell id="ncd-dCcMfYq5TYh1mDFG-89" value="DTOProduct" style="swimlane;fontStyle=1;align=center;verticalAlign=top;childLayout=stackLayout;horizontal=1;startSize=26;horizontalStack=0;resizeParent=1;resizeParentMax=0;resizeLast=0;collapsible=1;marginBottom=0;whiteSpace=wrap;html=1;" parent="1" vertex="1">
          <mxGeometry x="570" y="1295" width="590" height="240" as="geometry" />
        </mxCell>
        <mxCell id="ncd-dCcMfYq5TYh1mDFG-90" value="-id :int&lt;br&gt;-name :String&lt;br&gt;-description :String&lt;br&gt;&lt;div&gt;-stock :int&lt;/div&gt;-cost :float&lt;br&gt;-price :float&lt;br&gt;-idCategory :int" style="text;strokeColor=none;fillColor=none;align=left;verticalAlign=top;spacingLeft=4;spacingRight=4;overflow=hidden;rotatable=0;points=[[0,0.5],[1,0.5]];portConstraint=eastwest;whiteSpace=wrap;html=1;" parent="ncd-dCcMfYq5TYh1mDFG-89" vertex="1">
          <mxGeometry y="26" width="590" height="104" as="geometry" />
        </mxCell>
        <mxCell id="ncd-dCcMfYq5TYh1mDFG-91" value="" style="line;strokeWidth=1;fillColor=none;align=left;verticalAlign=middle;spacingTop=-1;spacingLeft=3;spacingRight=3;rotatable=0;labelPosition=right;points=[];portConstraint=eastwest;strokeColor=inherit;" parent="ncd-dCcMfYq5TYh1mDFG-89" vertex="1">
          <mxGeometry y="130" width="590" height="8" as="geometry" />
        </mxCell>
        <mxCell id="ncd-dCcMfYq5TYh1mDFG-92" value="+DTOProduct() :DTOProduct;&lt;br&gt;+DTOProduct(int id,String name,String description,int stock,float cost,float price,int idCategory) :DTOProduct;&lt;br&gt;+Getters and setters&lt;br&gt;+hashCode() :int;&lt;br&gt;+equals(Object obj) :boolean;&lt;br&gt;+toString() :String;" style="text;strokeColor=none;fillColor=none;align=left;verticalAlign=top;spacingLeft=4;spacingRight=4;overflow=hidden;rotatable=0;points=[[0,0.5],[1,0.5]];portConstraint=eastwest;whiteSpace=wrap;html=1;" parent="ncd-dCcMfYq5TYh1mDFG-89" vertex="1">
          <mxGeometry y="138" width="590" height="102" as="geometry" />
        </mxCell>
        <mxCell id="ncd-dCcMfYq5TYh1mDFG-93" value="DTOItem" style="swimlane;fontStyle=1;align=center;verticalAlign=top;childLayout=stackLayout;horizontal=1;startSize=26;horizontalStack=0;resizeParent=1;resizeParentMax=0;resizeLast=0;collapsible=1;marginBottom=0;whiteSpace=wrap;html=1;" parent="1" vertex="1">
          <mxGeometry x="1610" y="1295" width="450" height="200" as="geometry" />
        </mxCell>
        <mxCell id="ncd-dCcMfYq5TYh1mDFG-94" value="-idProduct :int&lt;br&gt;-idOrder :int&lt;br&gt;-totalProduct :int&lt;br&gt;-individualPrice :float" style="text;strokeColor=none;fillColor=none;align=left;verticalAlign=top;spacingLeft=4;spacingRight=4;overflow=hidden;rotatable=0;points=[[0,0.5],[1,0.5]];portConstraint=eastwest;whiteSpace=wrap;html=1;" parent="ncd-dCcMfYq5TYh1mDFG-93" vertex="1">
          <mxGeometry y="26" width="450" height="64" as="geometry" />
        </mxCell>
        <mxCell id="ncd-dCcMfYq5TYh1mDFG-95" value="" style="line;strokeWidth=1;fillColor=none;align=left;verticalAlign=middle;spacingTop=-1;spacingLeft=3;spacingRight=3;rotatable=0;labelPosition=right;points=[];portConstraint=eastwest;strokeColor=inherit;" parent="ncd-dCcMfYq5TYh1mDFG-93" vertex="1">
          <mxGeometry y="90" width="450" height="8" as="geometry" />
        </mxCell>
        <mxCell id="ncd-dCcMfYq5TYh1mDFG-96" value="+DTOItem() :DTOItem;&lt;br&gt;+DTOItem(int idProduct,int idOrder,int totalProduct,float individualPrice) :DTOItem;&lt;br&gt;+Getters and setters&lt;br&gt;+hashCode() :int;&lt;br&gt;+equals(Object obj) :boolean;&lt;br&gt;+toString() :String;" style="text;strokeColor=none;fillColor=none;align=left;verticalAlign=top;spacingLeft=4;spacingRight=4;overflow=hidden;rotatable=0;points=[[0,0.5],[1,0.5]];portConstraint=eastwest;whiteSpace=wrap;html=1;" parent="ncd-dCcMfYq5TYh1mDFG-93" vertex="1">
          <mxGeometry y="98" width="450" height="102" as="geometry" />
        </mxCell>
        <mxCell id="ncd-dCcMfYq5TYh1mDFG-97" value="DTOOrder" style="swimlane;fontStyle=1;align=center;verticalAlign=top;childLayout=stackLayout;horizontal=1;startSize=26;horizontalStack=0;resizeParent=1;resizeParentMax=0;resizeLast=0;collapsible=1;marginBottom=0;whiteSpace=wrap;html=1;" parent="1" vertex="1">
          <mxGeometry x="2220" y="1285" width="560" height="230" as="geometry" />
        </mxCell>
        <mxCell id="ncd-dCcMfYq5TYh1mDFG-98" value="-id :int&lt;br&gt;-idWaiter :int&lt;br&gt;&lt;div&gt;-idTable :int&lt;/div&gt;&lt;div&gt;-cutlery :int&lt;/div&gt;-dateOpen :Date&lt;br&gt;-dateClose :Date" style="text;strokeColor=none;fillColor=none;align=left;verticalAlign=top;spacingLeft=4;spacingRight=4;overflow=hidden;rotatable=0;points=[[0,0.5],[1,0.5]];portConstraint=eastwest;whiteSpace=wrap;html=1;" parent="ncd-dCcMfYq5TYh1mDFG-97" vertex="1">
          <mxGeometry y="26" width="560" height="94" as="geometry" />
        </mxCell>
        <mxCell id="ncd-dCcMfYq5TYh1mDFG-99" value="" style="line;strokeWidth=1;fillColor=none;align=left;verticalAlign=middle;spacingTop=-1;spacingLeft=3;spacingRight=3;rotatable=0;labelPosition=right;points=[];portConstraint=eastwest;strokeColor=inherit;" parent="ncd-dCcMfYq5TYh1mDFG-97" vertex="1">
          <mxGeometry y="120" width="560" height="8" as="geometry" />
        </mxCell>
        <mxCell id="ncd-dCcMfYq5TYh1mDFG-100" value="+DTOOrder() :DTOOrder;&lt;br&gt;+DTOOrder(int id,int idWaiter,int cutlery,int idTable,Date dateOpen,Date dateClose) :DTOOrder;&lt;br&gt;+Getters and setters&lt;br&gt;+hashCode() :int;&lt;br&gt;+equals(Object obj) :boolean;&lt;br&gt;+toString() :String;" style="text;strokeColor=none;fillColor=none;align=left;verticalAlign=top;spacingLeft=4;spacingRight=4;overflow=hidden;rotatable=0;points=[[0,0.5],[1,0.5]];portConstraint=eastwest;whiteSpace=wrap;html=1;" parent="ncd-dCcMfYq5TYh1mDFG-97" vertex="1">
          <mxGeometry y="128" width="560" height="102" as="geometry" />
        </mxCell>
        <mxCell id="ncd-dCcMfYq5TYh1mDFG-106" value="DTOTable" style="swimlane;fontStyle=1;align=center;verticalAlign=top;childLayout=stackLayout;horizontal=1;startSize=26;horizontalStack=0;resizeParent=1;resizeParentMax=0;resizeLast=0;collapsible=1;marginBottom=0;whiteSpace=wrap;html=1;" parent="1" vertex="1">
          <mxGeometry x="2815" y="1285" width="280" height="170" as="geometry" />
        </mxCell>
        <mxCell id="ncd-dCcMfYq5TYh1mDFG-107" value="-id :int&lt;br&gt;-name :String" style="text;strokeColor=none;fillColor=none;align=left;verticalAlign=top;spacingLeft=4;spacingRight=4;overflow=hidden;rotatable=0;points=[[0,0.5],[1,0.5]];portConstraint=eastwest;whiteSpace=wrap;html=1;" parent="ncd-dCcMfYq5TYh1mDFG-106" vertex="1">
          <mxGeometry y="26" width="280" height="34" as="geometry" />
        </mxCell>
        <mxCell id="ncd-dCcMfYq5TYh1mDFG-108" value="" style="line;strokeWidth=1;fillColor=none;align=left;verticalAlign=middle;spacingTop=-1;spacingLeft=3;spacingRight=3;rotatable=0;labelPosition=right;points=[];portConstraint=eastwest;strokeColor=inherit;" parent="ncd-dCcMfYq5TYh1mDFG-106" vertex="1">
          <mxGeometry y="60" width="280" height="8" as="geometry" />
        </mxCell>
        <mxCell id="ncd-dCcMfYq5TYh1mDFG-109" value="+DTOTable() :DTOTable;&lt;br&gt;+DTOTable(int id,String name) :DTOTable;&lt;br&gt;+Getters and setters&lt;br&gt;+hashCode() :int;&lt;br&gt;+equals(Object obj) :boolean;&lt;br&gt;+toString() :String;" style="text;strokeColor=none;fillColor=none;align=left;verticalAlign=top;spacingLeft=4;spacingRight=4;overflow=hidden;rotatable=0;points=[[0,0.5],[1,0.5]];portConstraint=eastwest;whiteSpace=wrap;html=1;" parent="ncd-dCcMfYq5TYh1mDFG-106" vertex="1">
          <mxGeometry y="68" width="280" height="102" as="geometry" />
        </mxCell>
        <mxCell id="DCq2Q7qNN7Um3mJ1h11l-25" value="MapperWaiter" style="swimlane;fontStyle=1;align=center;verticalAlign=top;childLayout=stackLayout;horizontal=1;startSize=26;horizontalStack=0;resizeParent=1;resizeParentMax=0;resizeLast=0;collapsible=1;marginBottom=0;whiteSpace=wrap;html=1;" parent="1" vertex="1">
          <mxGeometry x="3310" y="1100" width="190" height="60" as="geometry" />
        </mxCell>
        <mxCell id="DCq2Q7qNN7Um3mJ1h11l-27" value="" style="line;strokeWidth=1;fillColor=none;align=left;verticalAlign=middle;spacingTop=-1;spacingLeft=3;spacingRight=3;rotatable=0;labelPosition=right;points=[];portConstraint=eastwest;strokeColor=inherit;" parent="DCq2Q7qNN7Um3mJ1h11l-25" vertex="1">
          <mxGeometry y="26" width="190" height="8" as="geometry" />
        </mxCell>
        <mxCell id="DCq2Q7qNN7Um3mJ1h11l-28" value="&lt;div&gt;+MapperWaiter() :MapperWaiter;&lt;/div&gt;" style="text;strokeColor=none;fillColor=none;align=left;verticalAlign=top;spacingLeft=4;spacingRight=4;overflow=hidden;rotatable=0;points=[[0,0.5],[1,0.5]];portConstraint=eastwest;whiteSpace=wrap;html=1;" parent="DCq2Q7qNN7Um3mJ1h11l-25" vertex="1">
          <mxGeometry y="34" width="190" height="26" as="geometry" />
        </mxCell>
        <mxCell id="DCq2Q7qNN7Um3mJ1h11l-29" value="MapperCategory" style="swimlane;fontStyle=1;align=center;verticalAlign=top;childLayout=stackLayout;horizontal=1;startSize=26;horizontalStack=0;resizeParent=1;resizeParentMax=0;resizeLast=0;collapsible=1;marginBottom=0;whiteSpace=wrap;html=1;" parent="1" vertex="1">
          <mxGeometry x="20" y="1100" width="230" height="60" as="geometry" />
        </mxCell>
        <mxCell id="DCq2Q7qNN7Um3mJ1h11l-30" value="" style="line;strokeWidth=1;fillColor=none;align=left;verticalAlign=middle;spacingTop=-1;spacingLeft=3;spacingRight=3;rotatable=0;labelPosition=right;points=[];portConstraint=eastwest;strokeColor=inherit;" parent="DCq2Q7qNN7Um3mJ1h11l-29" vertex="1">
          <mxGeometry y="26" width="230" height="8" as="geometry" />
        </mxCell>
        <mxCell id="DCq2Q7qNN7Um3mJ1h11l-31" value="&lt;div&gt;+MapperCategory() :MapperCategory;&lt;/div&gt;" style="text;strokeColor=none;fillColor=none;align=left;verticalAlign=top;spacingLeft=4;spacingRight=4;overflow=hidden;rotatable=0;points=[[0,0.5],[1,0.5]];portConstraint=eastwest;whiteSpace=wrap;html=1;" parent="DCq2Q7qNN7Um3mJ1h11l-29" vertex="1">
          <mxGeometry y="34" width="230" height="26" as="geometry" />
        </mxCell>
        <mxCell id="DCq2Q7qNN7Um3mJ1h11l-32" value="MapperProduct" style="swimlane;fontStyle=1;align=center;verticalAlign=top;childLayout=stackLayout;horizontal=1;startSize=26;horizontalStack=0;resizeParent=1;resizeParentMax=0;resizeLast=0;collapsible=1;marginBottom=0;whiteSpace=wrap;html=1;" parent="1" vertex="1">
          <mxGeometry x="710" y="1100" width="200" height="60" as="geometry" />
        </mxCell>
        <mxCell id="DCq2Q7qNN7Um3mJ1h11l-33" value="" style="line;strokeWidth=1;fillColor=none;align=left;verticalAlign=middle;spacingTop=-1;spacingLeft=3;spacingRight=3;rotatable=0;labelPosition=right;points=[];portConstraint=eastwest;strokeColor=inherit;" parent="DCq2Q7qNN7Um3mJ1h11l-32" vertex="1">
          <mxGeometry y="26" width="200" height="8" as="geometry" />
        </mxCell>
        <mxCell id="DCq2Q7qNN7Um3mJ1h11l-34" value="&lt;div&gt;+MapperProduct() :MapperProduct;&lt;/div&gt;" style="text;strokeColor=none;fillColor=none;align=left;verticalAlign=top;spacingLeft=4;spacingRight=4;overflow=hidden;rotatable=0;points=[[0,0.5],[1,0.5]];portConstraint=eastwest;whiteSpace=wrap;html=1;" parent="DCq2Q7qNN7Um3mJ1h11l-32" vertex="1">
          <mxGeometry y="34" width="200" height="26" as="geometry" />
        </mxCell>
        <mxCell id="DCq2Q7qNN7Um3mJ1h11l-35" value="MapperItem" style="swimlane;fontStyle=1;align=center;verticalAlign=top;childLayout=stackLayout;horizontal=1;startSize=26;horizontalStack=0;resizeParent=1;resizeParentMax=0;resizeLast=0;collapsible=1;marginBottom=0;whiteSpace=wrap;html=1;" parent="1" vertex="1">
          <mxGeometry x="1584" y="1140" width="170" height="60" as="geometry" />
        </mxCell>
        <mxCell id="DCq2Q7qNN7Um3mJ1h11l-36" value="" style="line;strokeWidth=1;fillColor=none;align=left;verticalAlign=middle;spacingTop=-1;spacingLeft=3;spacingRight=3;rotatable=0;labelPosition=right;points=[];portConstraint=eastwest;strokeColor=inherit;" parent="DCq2Q7qNN7Um3mJ1h11l-35" vertex="1">
          <mxGeometry y="26" width="170" height="8" as="geometry" />
        </mxCell>
        <mxCell id="DCq2Q7qNN7Um3mJ1h11l-37" value="&lt;div&gt;+MapperItem() :MapperItem;&lt;/div&gt;" style="text;strokeColor=none;fillColor=none;align=left;verticalAlign=top;spacingLeft=4;spacingRight=4;overflow=hidden;rotatable=0;points=[[0,0.5],[1,0.5]];portConstraint=eastwest;whiteSpace=wrap;html=1;" parent="DCq2Q7qNN7Um3mJ1h11l-35" vertex="1">
          <mxGeometry y="34" width="170" height="26" as="geometry" />
        </mxCell>
        <mxCell id="DCq2Q7qNN7Um3mJ1h11l-38" value="MapperOrder" style="swimlane;fontStyle=1;align=center;verticalAlign=top;childLayout=stackLayout;horizontal=1;startSize=26;horizontalStack=0;resizeParent=1;resizeParentMax=0;resizeLast=0;collapsible=1;marginBottom=0;whiteSpace=wrap;html=1;" parent="1" vertex="1">
          <mxGeometry x="2520" y="1100" width="180" height="60" as="geometry" />
        </mxCell>
        <mxCell id="DCq2Q7qNN7Um3mJ1h11l-39" value="" style="line;strokeWidth=1;fillColor=none;align=left;verticalAlign=middle;spacingTop=-1;spacingLeft=3;spacingRight=3;rotatable=0;labelPosition=right;points=[];portConstraint=eastwest;strokeColor=inherit;" parent="DCq2Q7qNN7Um3mJ1h11l-38" vertex="1">
          <mxGeometry y="26" width="180" height="8" as="geometry" />
        </mxCell>
        <mxCell id="DCq2Q7qNN7Um3mJ1h11l-40" value="&lt;div&gt;+MapperOrder() :MapperOrder;&lt;/div&gt;" style="text;strokeColor=none;fillColor=none;align=left;verticalAlign=top;spacingLeft=4;spacingRight=4;overflow=hidden;rotatable=0;points=[[0,0.5],[1,0.5]];portConstraint=eastwest;whiteSpace=wrap;html=1;" parent="DCq2Q7qNN7Um3mJ1h11l-38" vertex="1">
          <mxGeometry y="34" width="180" height="26" as="geometry" />
        </mxCell>
        <mxCell id="DCq2Q7qNN7Um3mJ1h11l-41" value="MapperTable" style="swimlane;fontStyle=1;align=center;verticalAlign=top;childLayout=stackLayout;horizontal=1;startSize=26;horizontalStack=0;resizeParent=1;resizeParentMax=0;resizeLast=0;collapsible=1;marginBottom=0;whiteSpace=wrap;html=1;" parent="1" vertex="1">
          <mxGeometry x="3050" y="1100" width="180" height="60" as="geometry" />
        </mxCell>
        <mxCell id="DCq2Q7qNN7Um3mJ1h11l-42" value="" style="line;strokeWidth=1;fillColor=none;align=left;verticalAlign=middle;spacingTop=-1;spacingLeft=3;spacingRight=3;rotatable=0;labelPosition=right;points=[];portConstraint=eastwest;strokeColor=inherit;" parent="DCq2Q7qNN7Um3mJ1h11l-41" vertex="1">
          <mxGeometry y="26" width="180" height="8" as="geometry" />
        </mxCell>
        <mxCell id="DCq2Q7qNN7Um3mJ1h11l-43" value="&lt;div&gt;+MapperTable() :MapperTable;&lt;/div&gt;" style="text;strokeColor=none;fillColor=none;align=left;verticalAlign=top;spacingLeft=4;spacingRight=4;overflow=hidden;rotatable=0;points=[[0,0.5],[1,0.5]];portConstraint=eastwest;whiteSpace=wrap;html=1;" parent="DCq2Q7qNN7Um3mJ1h11l-41" vertex="1">
          <mxGeometry y="34" width="180" height="26" as="geometry" />
        </mxCell>
        <mxCell id="DCq2Q7qNN7Um3mJ1h11l-44" value="ControllerCategory" style="swimlane;fontStyle=1;align=center;verticalAlign=top;childLayout=stackLayout;horizontal=1;startSize=26;horizontalStack=0;resizeParent=1;resizeParentMax=0;resizeLast=0;collapsible=1;marginBottom=0;whiteSpace=wrap;html=1;" parent="1" vertex="1">
          <mxGeometry x="60" y="270" width="300" height="180" as="geometry" />
        </mxCell>
        <mxCell id="DCq2Q7qNN7Um3mJ1h11l-45" value="&lt;div&gt;-dao :DAOCategorySQL&lt;/div&gt;&lt;div&gt;-mapper :MapperCategory&lt;br&gt;&lt;/div&gt;" style="text;strokeColor=none;fillColor=none;align=left;verticalAlign=top;spacingLeft=4;spacingRight=4;overflow=hidden;rotatable=0;points=[[0,0.5],[1,0.5]];portConstraint=eastwest;whiteSpace=wrap;html=1;" parent="DCq2Q7qNN7Um3mJ1h11l-44" vertex="1">
          <mxGeometry y="26" width="300" height="34" as="geometry" />
        </mxCell>
        <mxCell id="DCq2Q7qNN7Um3mJ1h11l-46" value="" style="line;strokeWidth=1;fillColor=none;align=left;verticalAlign=middle;spacingTop=-1;spacingLeft=3;spacingRight=3;rotatable=0;labelPosition=right;points=[];portConstraint=eastwest;strokeColor=inherit;" parent="DCq2Q7qNN7Um3mJ1h11l-44" vertex="1">
          <mxGeometry y="60" width="300" height="8" as="geometry" />
        </mxCell>
        <mxCell id="DCq2Q7qNN7Um3mJ1h11l-47" value="&lt;div&gt;+ControllerCategory() :ControllerCategory;&lt;/div&gt;&lt;div&gt;+Getters and setters&lt;/div&gt;&lt;div&gt;+addCategory(String name) :void;&lt;/div&gt;&lt;div&gt;+removeCategory(int id) :void;&lt;/div&gt;&lt;div&gt;+changeCategory(int idToChange,String name) :void;&lt;br&gt;&lt;/div&gt;&lt;div&gt;+getCategoryById(int id) :Category;&lt;/div&gt;&lt;div&gt;+listAll() :List&amp;lt;Category&amp;gt;;&lt;/div&gt;" style="text;strokeColor=none;fillColor=none;align=left;verticalAlign=top;spacingLeft=4;spacingRight=4;overflow=hidden;rotatable=0;points=[[0,0.5],[1,0.5]];portConstraint=eastwest;whiteSpace=wrap;html=1;" parent="DCq2Q7qNN7Um3mJ1h11l-44" vertex="1">
          <mxGeometry y="68" width="300" height="112" as="geometry" />
        </mxCell>
        <mxCell id="5FBSnZhW09hsRZuxZCIm-1" value="ControllerWaiter" style="swimlane;fontStyle=1;align=center;verticalAlign=top;childLayout=stackLayout;horizontal=1;startSize=26;horizontalStack=0;resizeParent=1;resizeParentMax=0;resizeLast=0;collapsible=1;marginBottom=0;whiteSpace=wrap;html=1;" parent="1" vertex="1">
          <mxGeometry x="3122" y="270" width="370" height="180" as="geometry" />
        </mxCell>
        <mxCell id="5FBSnZhW09hsRZuxZCIm-2" value="&lt;div&gt;-dao :DAOWaiterSQL&lt;/div&gt;&lt;div&gt;-mapper :MapperWaiter&lt;br&gt;&lt;/div&gt;" style="text;strokeColor=none;fillColor=none;align=left;verticalAlign=top;spacingLeft=4;spacingRight=4;overflow=hidden;rotatable=0;points=[[0,0.5],[1,0.5]];portConstraint=eastwest;whiteSpace=wrap;html=1;" parent="5FBSnZhW09hsRZuxZCIm-1" vertex="1">
          <mxGeometry y="26" width="370" height="34" as="geometry" />
        </mxCell>
        <mxCell id="5FBSnZhW09hsRZuxZCIm-3" value="" style="line;strokeWidth=1;fillColor=none;align=left;verticalAlign=middle;spacingTop=-1;spacingLeft=3;spacingRight=3;rotatable=0;labelPosition=right;points=[];portConstraint=eastwest;strokeColor=inherit;" parent="5FBSnZhW09hsRZuxZCIm-1" vertex="1">
          <mxGeometry y="60" width="370" height="8" as="geometry" />
        </mxCell>
        <mxCell id="5FBSnZhW09hsRZuxZCIm-4" value="&lt;div&gt;+ControllerWaiter() :ControllerWaiter;&lt;/div&gt;&lt;div&gt;+Getters and setters&lt;/div&gt;&lt;div&gt;+addWaiter(String name,String lastName) :void;&lt;/div&gt;&lt;div&gt;+removeWaiter(int id) :void;&lt;/div&gt;&lt;div&gt;+changeWaiter(int idToChange,String name,String lastName) :void;&lt;br&gt;&lt;/div&gt;&lt;div&gt;+getWaiterById(int id) :Waiter;&lt;/div&gt;&lt;div&gt;+listAll() :List&amp;lt;Waiter&amp;gt;;&lt;/div&gt;" style="text;strokeColor=none;fillColor=none;align=left;verticalAlign=top;spacingLeft=4;spacingRight=4;overflow=hidden;rotatable=0;points=[[0,0.5],[1,0.5]];portConstraint=eastwest;whiteSpace=wrap;html=1;" parent="5FBSnZhW09hsRZuxZCIm-1" vertex="1">
          <mxGeometry y="68" width="370" height="112" as="geometry" />
        </mxCell>
        <mxCell id="5FBSnZhW09hsRZuxZCIm-5" value="ControllerProduct" style="swimlane;fontStyle=1;align=center;verticalAlign=top;childLayout=stackLayout;horizontal=1;startSize=26;horizontalStack=0;resizeParent=1;resizeParentMax=0;resizeLast=0;collapsible=1;marginBottom=0;whiteSpace=wrap;html=1;" parent="1" vertex="1">
          <mxGeometry x="490" y="270" width="650" height="206" as="geometry" />
        </mxCell>
        <mxCell id="5FBSnZhW09hsRZuxZCIm-6" value="&lt;div&gt;-dao :DAOProductSQL&lt;/div&gt;&lt;div&gt;-mapper :MapperProduct&lt;br&gt;&lt;/div&gt;&lt;div&gt;-categoryCont :ControllerCategory&lt;/div&gt;" style="text;strokeColor=none;fillColor=none;align=left;verticalAlign=top;spacingLeft=4;spacingRight=4;overflow=hidden;rotatable=0;points=[[0,0.5],[1,0.5]];portConstraint=eastwest;whiteSpace=wrap;html=1;" parent="5FBSnZhW09hsRZuxZCIm-5" vertex="1">
          <mxGeometry y="26" width="650" height="60" as="geometry" />
        </mxCell>
        <mxCell id="5FBSnZhW09hsRZuxZCIm-7" value="" style="line;strokeWidth=1;fillColor=none;align=left;verticalAlign=middle;spacingTop=-1;spacingLeft=3;spacingRight=3;rotatable=0;labelPosition=right;points=[];portConstraint=eastwest;strokeColor=inherit;" parent="5FBSnZhW09hsRZuxZCIm-5" vertex="1">
          <mxGeometry y="86" width="650" height="8" as="geometry" />
        </mxCell>
        <mxCell id="5FBSnZhW09hsRZuxZCIm-8" value="&lt;div&gt;+ControllerProduct() :ControllerProduct;&lt;/div&gt;&lt;div&gt;+Getters and setters&lt;/div&gt;&lt;div&gt;+addProduct(String name,String lastName) :void;&lt;/div&gt;&lt;div&gt;+removeProduct(int id) :void;&lt;/div&gt;&lt;div&gt;+changeProduct(int idToChange,String name,String description,int stock,float cost,float price,Category category) :void;&lt;br&gt;&lt;/div&gt;&lt;div&gt;+getProductById(int id) :Product;&lt;/div&gt;&lt;div&gt;+listAll() :List&amp;lt;Product&amp;gt;;&lt;/div&gt;" style="text;strokeColor=none;fillColor=none;align=left;verticalAlign=top;spacingLeft=4;spacingRight=4;overflow=hidden;rotatable=0;points=[[0,0.5],[1,0.5]];portConstraint=eastwest;whiteSpace=wrap;html=1;" parent="5FBSnZhW09hsRZuxZCIm-5" vertex="1">
          <mxGeometry y="94" width="650" height="112" as="geometry" />
        </mxCell>
        <mxCell id="5FBSnZhW09hsRZuxZCIm-9" value="ControllerTable" style="swimlane;fontStyle=1;align=center;verticalAlign=top;childLayout=stackLayout;horizontal=1;startSize=26;horizontalStack=0;resizeParent=1;resizeParentMax=0;resizeLast=0;collapsible=1;marginBottom=0;whiteSpace=wrap;html=1;" parent="1" vertex="1">
          <mxGeometry x="2470" y="270" width="370" height="196" as="geometry" />
        </mxCell>
        <mxCell id="5FBSnZhW09hsRZuxZCIm-10" value="&lt;div&gt;-dao :DAOTableSQL&lt;/div&gt;&lt;div&gt;-mapper :MapperTable&lt;br&gt;&lt;/div&gt;&lt;div&gt;-orderCont :ControllerOrder&lt;/div&gt;" style="text;strokeColor=none;fillColor=none;align=left;verticalAlign=top;spacingLeft=4;spacingRight=4;overflow=hidden;rotatable=0;points=[[0,0.5],[1,0.5]];portConstraint=eastwest;whiteSpace=wrap;html=1;" parent="5FBSnZhW09hsRZuxZCIm-9" vertex="1">
          <mxGeometry y="26" width="370" height="50" as="geometry" />
        </mxCell>
        <mxCell id="5FBSnZhW09hsRZuxZCIm-11" value="" style="line;strokeWidth=1;fillColor=none;align=left;verticalAlign=middle;spacingTop=-1;spacingLeft=3;spacingRight=3;rotatable=0;labelPosition=right;points=[];portConstraint=eastwest;strokeColor=inherit;" parent="5FBSnZhW09hsRZuxZCIm-9" vertex="1">
          <mxGeometry y="76" width="370" height="8" as="geometry" />
        </mxCell>
        <mxCell id="5FBSnZhW09hsRZuxZCIm-12" value="&lt;div&gt;+ControllerTable() :ControllerTable;&lt;/div&gt;&lt;div&gt;+Getters and setters&lt;/div&gt;&lt;div&gt;+addTable(String name) :void;&lt;/div&gt;&lt;div&gt;+removeTable(int id) :void;&lt;/div&gt;&lt;div&gt;+changeTable(int idToChange,String name) :void;&lt;br&gt;&lt;/div&gt;&lt;div&gt;+getTableById(int id) :Table;&lt;/div&gt;&lt;div&gt;+listAll() :List&amp;lt;Table&amp;gt;;&lt;/div&gt;" style="text;strokeColor=none;fillColor=none;align=left;verticalAlign=top;spacingLeft=4;spacingRight=4;overflow=hidden;rotatable=0;points=[[0,0.5],[1,0.5]];portConstraint=eastwest;whiteSpace=wrap;html=1;" parent="5FBSnZhW09hsRZuxZCIm-9" vertex="1">
          <mxGeometry y="84" width="370" height="112" as="geometry" />
        </mxCell>
        <mxCell id="5FBSnZhW09hsRZuxZCIm-13" value="ControllerOrder" style="swimlane;fontStyle=1;align=center;verticalAlign=top;childLayout=stackLayout;horizontal=1;startSize=26;horizontalStack=0;resizeParent=1;resizeParentMax=0;resizeLast=0;collapsible=1;marginBottom=0;whiteSpace=wrap;html=1;" parent="1" vertex="1">
          <mxGeometry x="1760" y="260" width="580" height="302" as="geometry" />
        </mxCell>
        <mxCell id="5FBSnZhW09hsRZuxZCIm-14" value="&lt;div&gt;-dao :DAOOrderSQL&lt;/div&gt;&lt;div&gt;-mapper :MapperOrder&lt;br&gt;&lt;/div&gt;&lt;div&gt;-daoItem :DAOItemSQL&lt;/div&gt;&lt;div&gt;-mapperItem :MapperItem&lt;/div&gt;&lt;div&gt;-waiterCont :ControllerWaiter&lt;/div&gt;&lt;div&gt;.productCont :ControllerProduct&lt;/div&gt;" style="text;strokeColor=none;fillColor=none;align=left;verticalAlign=top;spacingLeft=4;spacingRight=4;overflow=hidden;rotatable=0;points=[[0,0.5],[1,0.5]];portConstraint=eastwest;whiteSpace=wrap;html=1;" parent="5FBSnZhW09hsRZuxZCIm-13" vertex="1">
          <mxGeometry y="26" width="580" height="96" as="geometry" />
        </mxCell>
        <mxCell id="5FBSnZhW09hsRZuxZCIm-15" value="" style="line;strokeWidth=1;fillColor=none;align=left;verticalAlign=middle;spacingTop=-1;spacingLeft=3;spacingRight=3;rotatable=0;labelPosition=right;points=[];portConstraint=eastwest;strokeColor=inherit;" parent="5FBSnZhW09hsRZuxZCIm-13" vertex="1">
          <mxGeometry y="122" width="580" height="8" as="geometry" />
        </mxCell>
        <mxCell id="5FBSnZhW09hsRZuxZCIm-16" value="&lt;div&gt;+ControllerOrder() :ControllerOrder;&lt;/div&gt;&lt;div&gt;+Getters and setters&lt;/div&gt;&lt;div&gt;+addOrder(int idWaiter,int idTable,int cutlery) :void;&lt;/div&gt;&lt;div&gt;+removeOrder(int id) :void;&lt;/div&gt;&lt;div&gt;+changeOrder(int idToChange,Waiter oWaiter,int idTable,int cutlery,Date dateOpen,Date dateClose) :void;&lt;br&gt;&lt;/div&gt;&lt;div&gt;+getOrderById(int id) :Order;&lt;/div&gt;&lt;div&gt;+listAll() :List&amp;lt;Order&amp;gt;;&lt;br&gt;&lt;/div&gt;&lt;div&gt;&lt;span style=&quot;background-color: initial;&quot;&gt;+addItem(int idProduct,int idOrder,int totalProduct,float individualPrice) :void;&lt;/span&gt;&lt;/div&gt;&lt;div&gt;+removeItemFromOrder(int idOrder,int index) :void;&lt;/div&gt;&lt;div&gt;+changeItemFromOrder(int idOrder,int index,int idProduct,int totalProduct,float individualPrice) :void;&lt;/div&gt;&lt;div&gt;+listAllClosedOrdersFromTable(int idTable) :List&amp;lt;Order&amp;gt;;&lt;/div&gt;" style="text;strokeColor=none;fillColor=none;align=left;verticalAlign=top;spacingLeft=4;spacingRight=4;overflow=hidden;rotatable=0;points=[[0,0.5],[1,0.5]];portConstraint=eastwest;whiteSpace=wrap;html=1;" parent="5FBSnZhW09hsRZuxZCIm-13" vertex="1">
          <mxGeometry y="130" width="580" height="172" as="geometry" />
        </mxCell>
        <mxCell id="5FBSnZhW09hsRZuxZCIm-24" value="Use" style="endArrow=open;endSize=12;dashed=1;html=1;rounded=0;exitX=0;exitY=0.5;exitDx=0;exitDy=0;entryX=1;entryY=0.5;entryDx=0;entryDy=0;strokeColor=#0335FF;" parent="1" source="ncd-dCcMfYq5TYh1mDFG-55" target="ncd-dCcMfYq5TYh1mDFG-51" edge="1">
          <mxGeometry width="160" relative="1" as="geometry">
            <mxPoint x="70" y="1330" as="sourcePoint" />
            <mxPoint x="310" y="1490" as="targetPoint" />
          </mxGeometry>
        </mxCell>
        <mxCell id="5FBSnZhW09hsRZuxZCIm-31" value="Use" style="endArrow=open;endSize=12;dashed=1;html=1;rounded=0;exitX=0.063;exitY=1.091;exitDx=0;exitDy=0;exitPerimeter=0;entryX=0.1;entryY=0.012;entryDx=0;entryDy=0;entryPerimeter=0;strokeColor=#0335FF;" parent="1" source="DCq2Q7qNN7Um3mJ1h11l-31" target="ncd-dCcMfYq5TYh1mDFG-80" edge="1">
          <mxGeometry width="160" relative="1" as="geometry">
            <mxPoint x="30" y="840" as="sourcePoint" />
            <mxPoint x="39" y="900" as="targetPoint" />
          </mxGeometry>
        </mxCell>
        <mxCell id="5FBSnZhW09hsRZuxZCIm-32" value="Use" style="endArrow=open;endSize=12;dashed=1;html=1;rounded=0;entryX=0.25;entryY=0;entryDx=0;entryDy=0;exitX=0;exitY=0.093;exitDx=0;exitDy=0;exitPerimeter=0;strokeColor=#0335FF;" parent="1" source="ncd-dCcMfYq5TYh1mDFG-56" target="ncd-dCcMfYq5TYh1mDFG-80" edge="1">
          <mxGeometry width="160" relative="1" as="geometry">
            <mxPoint x="90" y="834.5" as="sourcePoint" />
            <mxPoint x="250" y="834.5" as="targetPoint" />
            <Array as="points">
              <mxPoint x="90" y="1207" />
            </Array>
          </mxGeometry>
        </mxCell>
        <mxCell id="5FBSnZhW09hsRZuxZCIm-38" value="Use" style="endArrow=open;endSize=12;dashed=1;html=1;rounded=0;entryX=0.636;entryY=0;entryDx=0;entryDy=0;entryPerimeter=0;exitX=0.99;exitY=0.4;exitDx=0;exitDy=0;exitPerimeter=0;strokeColor=#0335FF;" parent="1" source="DCq2Q7qNN7Um3mJ1h11l-32" target="ncd-dCcMfYq5TYh1mDFG-89" edge="1">
          <mxGeometry width="160" relative="1" as="geometry">
            <mxPoint x="1060" y="1180" as="sourcePoint" />
            <mxPoint x="1220" y="1180" as="targetPoint" />
            <Array as="points">
              <mxPoint x="945" y="1124" />
            </Array>
          </mxGeometry>
        </mxCell>
        <mxCell id="5FBSnZhW09hsRZuxZCIm-39" value="Use" style="endArrow=open;endSize=12;dashed=1;html=1;rounded=0;entryX=0.539;entryY=-0.025;entryDx=0;entryDy=0;entryPerimeter=0;exitX=1.009;exitY=0.216;exitDx=0;exitDy=0;exitPerimeter=0;strokeColor=#0335FF;" parent="1" source="ncd-dCcMfYq5TYh1mDFG-68" target="ncd-dCcMfYq5TYh1mDFG-89" edge="1">
          <mxGeometry width="160" relative="1" as="geometry">
            <mxPoint x="1068" y="1170" as="sourcePoint" />
            <mxPoint x="890" y="1240" as="targetPoint" />
            <Array as="points">
              <mxPoint x="890" y="1240" />
            </Array>
          </mxGeometry>
        </mxCell>
        <mxCell id="5FBSnZhW09hsRZuxZCIm-49" value="Use" style="endArrow=open;endSize=12;dashed=1;html=1;rounded=0;entryX=0.568;entryY=0;entryDx=0;entryDy=0;entryPerimeter=0;exitX=1.003;exitY=0.155;exitDx=0;exitDy=0;exitPerimeter=0;strokeColor=#0335FF;" parent="1" source="ncd-dCcMfYq5TYh1mDFG-76" target="ncd-dCcMfYq5TYh1mDFG-97" edge="1">
          <mxGeometry width="160" relative="1" as="geometry">
            <mxPoint x="1940" y="1050" as="sourcePoint" />
            <mxPoint x="2100" y="1050" as="targetPoint" />
            <Array as="points">
              <mxPoint x="2540" y="1240" />
            </Array>
          </mxGeometry>
        </mxCell>
        <mxCell id="5FBSnZhW09hsRZuxZCIm-54" value="Use" style="endArrow=open;endSize=12;dashed=1;html=1;rounded=0;entryX=0.2;entryY=0.025;entryDx=0;entryDy=0;entryPerimeter=0;exitX=0.665;exitY=1.154;exitDx=0;exitDy=0;exitPerimeter=0;strokeColor=#0335FF;" parent="1" source="DCq2Q7qNN7Um3mJ1h11l-37" target="ncd-dCcMfYq5TYh1mDFG-93" edge="1">
          <mxGeometry width="160" relative="1" as="geometry">
            <mxPoint x="1275" y="1170" as="sourcePoint" />
            <mxPoint x="1435" y="1170" as="targetPoint" />
          </mxGeometry>
        </mxCell>
        <mxCell id="5FBSnZhW09hsRZuxZCIm-55" value="Use" style="endArrow=open;endSize=12;dashed=1;html=1;rounded=0;entryX=0.371;entryY=-0.025;entryDx=0;entryDy=0;entryPerimeter=0;exitX=0.009;exitY=0.155;exitDx=0;exitDy=0;exitPerimeter=0;strokeColor=#0335FF;" parent="1" source="ncd-dCcMfYq5TYh1mDFG-65" target="ncd-dCcMfYq5TYh1mDFG-93" edge="1">
          <mxGeometry width="160" relative="1" as="geometry">
            <mxPoint x="1180" y="800" as="sourcePoint" />
            <mxPoint x="1340" y="800" as="targetPoint" />
            <Array as="points">
              <mxPoint x="1777" y="1240" />
            </Array>
          </mxGeometry>
        </mxCell>
        <mxCell id="5FBSnZhW09hsRZuxZCIm-65" value="Use" style="endArrow=open;endSize=12;dashed=1;html=1;rounded=0;entryX=0.638;entryY=0.004;entryDx=0;entryDy=0;entryPerimeter=0;exitX=0.305;exitY=1.076;exitDx=0;exitDy=0;exitPerimeter=0;strokeColor=#0335FF;" parent="1" source="DCq2Q7qNN7Um3mJ1h11l-40" target="ncd-dCcMfYq5TYh1mDFG-97" edge="1">
          <mxGeometry width="160" relative="1" as="geometry">
            <mxPoint x="2010" y="900" as="sourcePoint" />
            <mxPoint x="2170" y="900" as="targetPoint" />
          </mxGeometry>
        </mxCell>
        <mxCell id="5FBSnZhW09hsRZuxZCIm-66" value="Use" style="endArrow=open;endSize=12;dashed=1;html=1;rounded=0;entryX=0.464;entryY=0;entryDx=0;entryDy=0;entryPerimeter=0;exitX=1.009;exitY=0.216;exitDx=0;exitDy=0;exitPerimeter=0;strokeColor=#0335FF;" parent="1" source="ncd-dCcMfYq5TYh1mDFG-79" target="ncd-dCcMfYq5TYh1mDFG-106" edge="1">
          <mxGeometry width="160" relative="1" as="geometry">
            <mxPoint x="2650" y="1230" as="sourcePoint" />
            <mxPoint x="2810" y="1230" as="targetPoint" />
            <Array as="points">
              <mxPoint x="2945" y="1230" />
            </Array>
          </mxGeometry>
        </mxCell>
        <mxCell id="5FBSnZhW09hsRZuxZCIm-67" value="Use" style="endArrow=open;endSize=12;dashed=1;html=1;rounded=0;entryX=0.621;entryY=-0.029;entryDx=0;entryDy=0;entryPerimeter=0;exitX=0;exitY=0.25;exitDx=0;exitDy=0;strokeColor=#0335FF;" parent="1" source="DCq2Q7qNN7Um3mJ1h11l-41" target="ncd-dCcMfYq5TYh1mDFG-106" edge="1">
          <mxGeometry width="160" relative="1" as="geometry">
            <mxPoint x="2650" y="1230" as="sourcePoint" />
            <mxPoint x="2810" y="1230" as="targetPoint" />
            <Array as="points">
              <mxPoint x="2990" y="1115" />
            </Array>
          </mxGeometry>
        </mxCell>
        <mxCell id="5FBSnZhW09hsRZuxZCIm-73" value="Use" style="endArrow=open;endSize=12;dashed=1;html=1;rounded=0;entryX=0.941;entryY=0.005;entryDx=0;entryDy=0;entryPerimeter=0;exitX=0.89;exitY=1.045;exitDx=0;exitDy=0;exitPerimeter=0;strokeColor=#0335FF;" parent="1" source="DCq2Q7qNN7Um3mJ1h11l-28" target="ncd-dCcMfYq5TYh1mDFG-85" edge="1">
          <mxGeometry x="-0.076" y="-3" width="160" relative="1" as="geometry">
            <mxPoint x="3030" y="1200" as="sourcePoint" />
            <mxPoint x="3190" y="1200" as="targetPoint" />
            <Array as="points" />
            <mxPoint as="offset" />
          </mxGeometry>
        </mxCell>
        <mxCell id="5FBSnZhW09hsRZuxZCIm-74" value="Use" style="endArrow=open;endSize=12;dashed=1;html=1;rounded=0;entryX=0.714;entryY=0.005;entryDx=0;entryDy=0;entryPerimeter=0;exitX=1.009;exitY=0.147;exitDx=0;exitDy=0;exitPerimeter=0;strokeColor=#0335FF;" parent="1" source="ncd-dCcMfYq5TYh1mDFG-62" target="ncd-dCcMfYq5TYh1mDFG-85" edge="1">
          <mxGeometry width="160" relative="1" as="geometry">
            <mxPoint x="3030" y="1200" as="sourcePoint" />
            <mxPoint x="3190" y="1200" as="targetPoint" />
            <Array as="points">
              <mxPoint x="3400" y="1229" />
            </Array>
          </mxGeometry>
        </mxCell>
        <mxCell id="5FBSnZhW09hsRZuxZCIm-82" value="" style="endArrow=block;dashed=1;endFill=0;endSize=12;html=1;rounded=0;entryX=-0.006;entryY=0.093;entryDx=0;entryDy=0;entryPerimeter=0;strokeColor=#FF0000;" parent="1" target="ncd-dCcMfYq5TYh1mDFG-55" edge="1">
          <mxGeometry width="160" relative="1" as="geometry">
            <mxPoint x="410" y="1567" as="sourcePoint" />
            <mxPoint x="480" y="1390" as="targetPoint" />
          </mxGeometry>
        </mxCell>
        <mxCell id="5FBSnZhW09hsRZuxZCIm-83" value="" style="endArrow=none;dashed=1;html=1;rounded=0;strokeColor=#FF0000;" parent="1" edge="1">
          <mxGeometry width="50" height="50" relative="1" as="geometry">
            <mxPoint x="410" y="1560" as="sourcePoint" />
            <mxPoint x="410" y="1370" as="targetPoint" />
          </mxGeometry>
        </mxCell>
        <mxCell id="5FBSnZhW09hsRZuxZCIm-84" value="" style="endArrow=none;dashed=1;html=1;rounded=0;entryX=0.1;entryY=0.991;entryDx=0;entryDy=0;entryPerimeter=0;exitX=0.577;exitY=1.111;exitDx=0;exitDy=0;exitPerimeter=0;strokeColor=#FF0000;" parent="1" source="ncd-dCcMfYq5TYh1mDFG-59" target="ncd-dCcMfYq5TYh1mDFG-68" edge="1">
          <mxGeometry width="50" height="50" relative="1" as="geometry">
            <mxPoint x="560" y="1250" as="sourcePoint" />
            <mxPoint x="610" y="1200" as="targetPoint" />
            <Array as="points">
              <mxPoint x="320" y="1370" />
              <mxPoint x="544" y="1370" />
            </Array>
          </mxGeometry>
        </mxCell>
        <mxCell id="5FBSnZhW09hsRZuxZCIm-85" value="" style="endArrow=block;dashed=1;endFill=0;endSize=12;html=1;rounded=0;entryX=1.006;entryY=0.012;entryDx=0;entryDy=0;entryPerimeter=0;strokeColor=#FF0000;" parent="1" target="ncd-dCcMfYq5TYh1mDFG-55" edge="1">
          <mxGeometry width="160" relative="1" as="geometry">
            <mxPoint x="3110" y="1560" as="sourcePoint" />
            <mxPoint x="1960" y="1560" as="targetPoint" />
          </mxGeometry>
        </mxCell>
        <mxCell id="5FBSnZhW09hsRZuxZCIm-86" value="" style="endArrow=none;dashed=1;html=1;rounded=0;strokeColor=#FF0000;" parent="1" edge="1">
          <mxGeometry width="50" height="50" relative="1" as="geometry">
            <mxPoint x="2160" y="1550" as="sourcePoint" />
            <mxPoint x="2160" y="1360" as="targetPoint" />
          </mxGeometry>
        </mxCell>
        <mxCell id="5FBSnZhW09hsRZuxZCIm-87" value="" style="endArrow=none;dashed=1;html=1;rounded=0;exitX=0.803;exitY=1.017;exitDx=0;exitDy=0;exitPerimeter=0;entryX=0.064;entryY=1.056;entryDx=0;entryDy=0;entryPerimeter=0;strokeColor=#FF0000;" parent="1" source="ncd-dCcMfYq5TYh1mDFG-65" target="ncd-dCcMfYq5TYh1mDFG-76" edge="1">
          <mxGeometry width="50" height="50" relative="1" as="geometry">
            <mxPoint x="1830" y="1500" as="sourcePoint" />
            <mxPoint x="1930" y="1310" as="targetPoint" />
            <Array as="points">
              <mxPoint x="2080" y="1360" />
              <mxPoint x="2200" y="1360" />
            </Array>
          </mxGeometry>
        </mxCell>
        <mxCell id="5FBSnZhW09hsRZuxZCIm-88" value="" style="endArrow=none;dashed=1;html=1;rounded=0;entryX=0.612;entryY=1.043;entryDx=0;entryDy=0;entryPerimeter=0;strokeColor=#FF0000;" parent="1" target="ncd-dCcMfYq5TYh1mDFG-79" edge="1">
          <mxGeometry width="50" height="50" relative="1" as="geometry">
            <mxPoint x="2790" y="1550" as="sourcePoint" />
            <mxPoint x="2470" y="1550" as="targetPoint" />
          </mxGeometry>
        </mxCell>
        <mxCell id="5FBSnZhW09hsRZuxZCIm-89" value="" style="endArrow=none;dashed=1;html=1;rounded=0;entryX=0.276;entryY=1.026;entryDx=0;entryDy=0;entryPerimeter=0;strokeColor=#FF0000;" parent="1" target="ncd-dCcMfYq5TYh1mDFG-62" edge="1">
          <mxGeometry width="50" height="50" relative="1" as="geometry">
            <mxPoint x="3111" y="1560" as="sourcePoint" />
            <mxPoint x="3000" y="1360" as="targetPoint" />
          </mxGeometry>
        </mxCell>
        <mxCell id="5FBSnZhW09hsRZuxZCIm-91" value="LUCA SUIZER&lt;br&gt;MAXIMILIANO ROMERO" style="html=1;whiteSpace=wrap;" parent="1" vertex="1">
          <mxGeometry x="10" y="1570" width="180" height="75" as="geometry" />
        </mxCell>
        <mxCell id="prmoluB_tdKV2MAW_gco-2" value="Menues" style="swimlane;fontStyle=1;align=center;verticalAlign=top;childLayout=stackLayout;horizontal=1;startSize=26;horizontalStack=0;resizeParent=1;resizeParentMax=0;resizeLast=0;collapsible=1;marginBottom=0;whiteSpace=wrap;html=1;" parent="1" vertex="1">
          <mxGeometry x="1260" y="40" width="230" height="200" as="geometry" />
        </mxCell>
        <mxCell id="prmoluB_tdKV2MAW_gco-3" value="-productCont :ControllerProduct&lt;br&gt;-orderCont :ControllerOrder&lt;br&gt;-tableCont :ControllerTable&lt;br&gt;-waiterCont :ControllerWaiter&lt;br&gt;-sotckCont :ControllerStock" style="text;strokeColor=none;fillColor=none;align=left;verticalAlign=top;spacingLeft=4;spacingRight=4;overflow=hidden;rotatable=0;points=[[0,0.5],[1,0.5]];portConstraint=eastwest;whiteSpace=wrap;html=1;" parent="prmoluB_tdKV2MAW_gco-2" vertex="1">
          <mxGeometry y="26" width="230" height="84" as="geometry" />
        </mxCell>
        <mxCell id="prmoluB_tdKV2MAW_gco-4" value="" style="line;strokeWidth=1;fillColor=none;align=left;verticalAlign=middle;spacingTop=-1;spacingLeft=3;spacingRight=3;rotatable=0;labelPosition=right;points=[];portConstraint=eastwest;strokeColor=inherit;" parent="prmoluB_tdKV2MAW_gco-2" vertex="1">
          <mxGeometry y="110" width="230" height="8" as="geometry" />
        </mxCell>
        <mxCell id="prmoluB_tdKV2MAW_gco-5" value="+Menues() :Menues;&lt;br&gt;-listTables() :void;&lt;br&gt;-listProductsByCategorySelected() :void;&lt;br&gt;-listCategories(int startIndex) :void;&lt;br&gt;-displayOrderFromTable() :void" style="text;strokeColor=none;fillColor=none;align=left;verticalAlign=top;spacingLeft=4;spacingRight=4;overflow=hidden;rotatable=0;points=[[0,0.5],[1,0.5]];portConstraint=eastwest;whiteSpace=wrap;html=1;" parent="prmoluB_tdKV2MAW_gco-2" vertex="1">
          <mxGeometry y="118" width="230" height="82" as="geometry" />
        </mxCell>
        <mxCell id="prmoluB_tdKV2MAW_gco-17" value="" style="endArrow=diamondThin;endFill=1;endSize=24;html=1;rounded=0;entryX=-0.009;entryY=0.623;entryDx=0;entryDy=0;entryPerimeter=0;exitX=1.02;exitY=0.09;exitDx=0;exitDy=0;exitPerimeter=0;" parent="1" source="ncd-dCcMfYq5TYh1mDFG-24" target="ncd-dCcMfYq5TYh1mDFG-29" edge="1">
          <mxGeometry width="160" relative="1" as="geometry">
            <mxPoint x="230" y="680" as="sourcePoint" />
            <mxPoint x="390" y="680" as="targetPoint" />
            <Array as="points">
              <mxPoint x="300" y="680" />
              <mxPoint x="300" y="767" />
            </Array>
          </mxGeometry>
        </mxCell>
        <mxCell id="prmoluB_tdKV2MAW_gco-18" value="" style="endArrow=diamondThin;endFill=1;endSize=24;html=1;rounded=0;entryX=-0.005;entryY=0.886;entryDx=0;entryDy=0;entryPerimeter=0;" parent="1" target="ncd-dCcMfYq5TYh1mDFG-29" edge="1">
          <mxGeometry width="160" relative="1" as="geometry">
            <mxPoint x="310" y="830" as="sourcePoint" />
            <mxPoint x="470" y="830" as="targetPoint" />
            <Array as="points">
              <mxPoint x="340" y="830" />
              <mxPoint x="340" y="797" />
            </Array>
          </mxGeometry>
        </mxCell>
        <mxCell id="prmoluB_tdKV2MAW_gco-19" value="" style="endArrow=diamondThin;endFill=1;endSize=24;html=1;rounded=0;entryX=-0.014;entryY=0.188;entryDx=0;entryDy=0;entryPerimeter=0;" parent="1" target="ncd-dCcMfYq5TYh1mDFG-37" edge="1">
          <mxGeometry width="160" relative="1" as="geometry">
            <mxPoint x="920" y="680" as="sourcePoint" />
            <mxPoint x="1080" y="680" as="targetPoint" />
            <Array as="points">
              <mxPoint x="980" y="680" />
              <mxPoint x="980" y="708" />
            </Array>
          </mxGeometry>
        </mxCell>
        <mxCell id="prmoluB_tdKV2MAW_gco-21" value="" style="endArrow=diamondThin;endFill=1;endSize=24;html=1;rounded=0;entryX=1.006;entryY=0.009;entryDx=0;entryDy=0;entryPerimeter=0;exitX=0;exitY=0.086;exitDx=0;exitDy=0;exitPerimeter=0;" parent="1" target="ncd-dCcMfYq5TYh1mDFG-41" edge="1">
          <mxGeometry width="160" relative="1" as="geometry">
            <mxPoint x="3122" y="698.0699999999999" as="sourcePoint" />
            <mxPoint x="1933.8600000000001" y="719.9959999999999" as="targetPoint" />
            <Array as="points">
              <mxPoint x="2642" y="699.03" />
              <mxPoint x="2362" y="699.03" />
            </Array>
          </mxGeometry>
        </mxCell>
        <mxCell id="prmoluB_tdKV2MAW_gco-22" value="Use" style="endArrow=open;endSize=12;dashed=1;html=1;rounded=0;entryX=-0.013;entryY=0.071;entryDx=0;entryDy=0;entryPerimeter=0;exitX=0.037;exitY=1;exitDx=0;exitDy=0;exitPerimeter=0;strokeColor=#0335FF;" parent="1" source="DCq2Q7qNN7Um3mJ1h11l-47" target="ncd-dCcMfYq5TYh1mDFG-20" edge="1">
          <mxGeometry width="160" relative="1" as="geometry">
            <mxPoint x="45" y="570" as="sourcePoint" />
            <mxPoint x="40" y="820" as="targetPoint" />
            <Array as="points">
              <mxPoint x="60" y="830" />
            </Array>
          </mxGeometry>
        </mxCell>
        <mxCell id="prmoluB_tdKV2MAW_gco-24" value="Use" style="endArrow=open;endSize=12;dashed=1;html=1;rounded=0;exitX=0.187;exitY=-0.05;exitDx=0;exitDy=0;exitPerimeter=0;strokeColor=#0335FF;" parent="1" source="DCq2Q7qNN7Um3mJ1h11l-29" edge="1">
          <mxGeometry width="160" relative="1" as="geometry">
            <mxPoint x="-80" y="860" as="sourcePoint" />
            <mxPoint x="80" y="860" as="targetPoint" />
            <Array as="points">
              <mxPoint x="50" y="860" />
            </Array>
          </mxGeometry>
        </mxCell>
        <mxCell id="prmoluB_tdKV2MAW_gco-26" value="Use" style="endArrow=open;endSize=12;dashed=1;html=1;rounded=0;entryX=0.56;entryY=1.061;entryDx=0;entryDy=0;entryPerimeter=0;exitX=-0.014;exitY=0.5;exitDx=0;exitDy=0;exitPerimeter=0;strokeColor=#0335FF;" parent="1" source="DCq2Q7qNN7Um3mJ1h11l-34" target="ncd-dCcMfYq5TYh1mDFG-31" edge="1">
          <mxGeometry width="160" relative="1" as="geometry">
            <mxPoint x="530" y="960" as="sourcePoint" />
            <mxPoint x="690" y="960" as="targetPoint" />
            <Array as="points">
              <mxPoint x="680" y="1147" />
            </Array>
          </mxGeometry>
        </mxCell>
        <mxCell id="prmoluB_tdKV2MAW_gco-28" value="Use" style="endArrow=open;endSize=12;dashed=1;html=1;rounded=0;exitX=0.318;exitY=-0.05;exitDx=0;exitDy=0;exitPerimeter=0;strokeColor=#0335FF;entryX=0.886;entryY=1.038;entryDx=0;entryDy=0;entryPerimeter=0;" parent="1" source="DCq2Q7qNN7Um3mJ1h11l-35" target="ncd-dCcMfYq5TYh1mDFG-39" edge="1">
          <mxGeometry width="160" relative="1" as="geometry">
            <mxPoint x="1160" y="910" as="sourcePoint" />
            <mxPoint x="1560" y="860" as="targetPoint" />
            <Array as="points">
              <mxPoint x="1621" y="890" />
            </Array>
          </mxGeometry>
        </mxCell>
        <mxCell id="prmoluB_tdKV2MAW_gco-29" value="Use" style="endArrow=open;endSize=12;dashed=1;html=1;rounded=0;exitX=0;exitY=0.394;exitDx=0;exitDy=0;exitPerimeter=0;strokeColor=#0335FF;" parent="1" source="DCq2Q7qNN7Um3mJ1h11l-40" edge="1">
          <mxGeometry width="160" relative="1" as="geometry">
            <mxPoint x="1810" y="870" as="sourcePoint" />
            <mxPoint x="2080" y="940" as="targetPoint" />
            <Array as="points">
              <mxPoint x="2080" y="1140" />
            </Array>
          </mxGeometry>
        </mxCell>
        <mxCell id="prmoluB_tdKV2MAW_gco-30" value="Use" style="endArrow=open;endSize=12;dashed=1;html=1;rounded=0;exitX=0.75;exitY=0;exitDx=0;exitDy=0;strokeColor=#0335FF;entryX=0.768;entryY=1.085;entryDx=0;entryDy=0;entryPerimeter=0;" parent="1" source="DCq2Q7qNN7Um3mJ1h11l-41" target="ncd-dCcMfYq5TYh1mDFG-48" edge="1">
          <mxGeometry width="160" relative="1" as="geometry">
            <mxPoint x="2430" y="860" as="sourcePoint" />
            <mxPoint x="2510" y="940" as="targetPoint" />
            <Array as="points">
              <mxPoint x="3180" y="940" />
              <mxPoint x="2800" y="940" />
            </Array>
          </mxGeometry>
        </mxCell>
        <mxCell id="prmoluB_tdKV2MAW_gco-31" value="Use" style="endArrow=open;endSize=12;dashed=1;html=1;rounded=0;entryX=1;entryY=0.5;entryDx=0;entryDy=0;exitX=0.8;exitY=-0.05;exitDx=0;exitDy=0;exitPerimeter=0;strokeColor=#0335FF;" parent="1" source="DCq2Q7qNN7Um3mJ1h11l-25" target="ncd-dCcMfYq5TYh1mDFG-35" edge="1">
          <mxGeometry width="160" relative="1" as="geometry">
            <mxPoint x="3180" y="880" as="sourcePoint" />
            <mxPoint x="3340" y="880" as="targetPoint" />
            <Array as="points">
              <mxPoint x="3460" y="801" />
            </Array>
          </mxGeometry>
        </mxCell>
        <mxCell id="prmoluB_tdKV2MAW_gco-32" value="Use" style="endArrow=open;endSize=12;dashed=1;html=1;rounded=0;entryX=0.07;entryY=0.007;entryDx=0;entryDy=0;entryPerimeter=0;exitX=0.046;exitY=1.03;exitDx=0;exitDy=0;exitPerimeter=0;strokeColor=#0335FF;" parent="1" source="5FBSnZhW09hsRZuxZCIm-8" target="ncd-dCcMfYq5TYh1mDFG-20" edge="1">
          <mxGeometry width="160" relative="1" as="geometry">
            <mxPoint x="200" y="580" as="sourcePoint" />
            <mxPoint x="360" y="580" as="targetPoint" />
            <Array as="points">
              <mxPoint x="520" y="540" />
              <mxPoint x="100" y="550" />
            </Array>
          </mxGeometry>
        </mxCell>
        <mxCell id="prmoluB_tdKV2MAW_gco-33" value="Use" style="endArrow=open;endSize=12;dashed=1;html=1;rounded=0;entryX=0.536;entryY=-0.009;entryDx=0;entryDy=0;entryPerimeter=0;exitX=0.268;exitY=1.015;exitDx=0;exitDy=0;exitPerimeter=0;strokeColor=#0335FF;" parent="1" source="5FBSnZhW09hsRZuxZCIm-8" target="ncd-dCcMfYq5TYh1mDFG-28" edge="1">
          <mxGeometry width="160" relative="1" as="geometry">
            <mxPoint x="560" y="560" as="sourcePoint" />
            <mxPoint x="720" y="560" as="targetPoint" />
          </mxGeometry>
        </mxCell>
        <mxCell id="prmoluB_tdKV2MAW_gco-34" value="Use" style="endArrow=open;endSize=12;dashed=1;html=1;rounded=0;entryX=0.835;entryY=-0.022;entryDx=0;entryDy=0;exitX=0.726;exitY=1.035;exitDx=0;exitDy=0;exitPerimeter=0;strokeColor=#0335FF;entryPerimeter=0;" parent="1" source="5FBSnZhW09hsRZuxZCIm-16" target="ncd-dCcMfYq5TYh1mDFG-40" edge="1">
          <mxGeometry width="160" relative="1" as="geometry">
            <mxPoint x="2080" y="540" as="sourcePoint" />
            <mxPoint x="2240" y="540" as="targetPoint" />
          </mxGeometry>
        </mxCell>
        <mxCell id="prmoluB_tdKV2MAW_gco-35" value="Use" style="endArrow=open;endSize=12;dashed=1;html=1;rounded=0;entryX=0.75;entryY=0;entryDx=0;entryDy=0;strokeColor=#0335FF;" parent="1" target="ncd-dCcMfYq5TYh1mDFG-32" edge="1">
          <mxGeometry width="160" relative="1" as="geometry">
            <mxPoint x="3348" y="460" as="sourcePoint" />
            <mxPoint x="2950" y="430" as="targetPoint" />
            <Array as="points" />
          </mxGeometry>
        </mxCell>
        <mxCell id="prmoluB_tdKV2MAW_gco-36" value="Use" style="endArrow=open;endSize=12;dashed=1;html=1;rounded=0;entryX=0.586;entryY=0.021;entryDx=0;entryDy=0;exitX=1;exitY=0.395;exitDx=0;exitDy=0;exitPerimeter=0;strokeColor=#0335FF;entryPerimeter=0;" parent="1" source="5FBSnZhW09hsRZuxZCIm-16" target="ncd-dCcMfYq5TYh1mDFG-32" edge="1">
          <mxGeometry width="160" relative="1" as="geometry">
            <mxPoint x="2450" y="620" as="sourcePoint" />
            <mxPoint x="2610" y="620" as="targetPoint" />
            <Array as="points">
              <mxPoint x="2450" y="460" />
              <mxPoint x="2450" y="620" />
              <mxPoint x="3300" y="620" />
            </Array>
          </mxGeometry>
        </mxCell>
        <mxCell id="prmoluB_tdKV2MAW_gco-37" value="Use" style="endArrow=open;endSize=12;dashed=1;html=1;rounded=0;entryX=0.75;entryY=0;entryDx=0;entryDy=0;exitX=0.889;exitY=1.036;exitDx=0;exitDy=0;exitPerimeter=0;strokeColor=#0335FF;" parent="1" edge="1" target="ncd-dCcMfYq5TYh1mDFG-45" source="5FBSnZhW09hsRZuxZCIm-12">
          <mxGeometry width="160" relative="1" as="geometry">
            <mxPoint x="2470" y="386.048" as="sourcePoint" />
            <mxPoint x="2361.85" y="720" as="targetPoint" />
            <Array as="points">
              <mxPoint x="2800" y="520" />
            </Array>
          </mxGeometry>
        </mxCell>
        <mxCell id="prmoluB_tdKV2MAW_gco-38" value="" style="endArrow=diamondThin;endFill=1;endSize=24;html=1;rounded=0;exitX=0.788;exitY=-0.015;exitDx=0;exitDy=0;exitPerimeter=0;" parent="1" source="5FBSnZhW09hsRZuxZCIm-5" edge="1">
          <mxGeometry width="160" relative="1" as="geometry">
            <mxPoint x="1100" y="90" as="sourcePoint" />
            <mxPoint x="1260" y="90" as="targetPoint" />
            <Array as="points">
              <mxPoint x="1000" y="90" />
            </Array>
          </mxGeometry>
        </mxCell>
        <mxCell id="prmoluB_tdKV2MAW_gco-41" value="" style="endArrow=diamondThin;endFill=1;endSize=24;html=1;rounded=0;entryX=1;entryY=0.5;entryDx=0;entryDy=0;exitX=0.624;exitY=-0.019;exitDx=0;exitDy=0;exitPerimeter=0;" parent="1" source="5FBSnZhW09hsRZuxZCIm-13" target="prmoluB_tdKV2MAW_gco-3" edge="1">
          <mxGeometry width="160" relative="1" as="geometry">
            <mxPoint x="1520" y="200" as="sourcePoint" />
            <mxPoint x="1680" y="200" as="targetPoint" />
            <Array as="points">
              <mxPoint x="2120" y="110" />
            </Array>
          </mxGeometry>
        </mxCell>
        <mxCell id="prmoluB_tdKV2MAW_gco-43" value="" style="endArrow=none;html=1;rounded=0;exitX=0.5;exitY=0;exitDx=0;exitDy=0;" parent="1" source="5FBSnZhW09hsRZuxZCIm-9" edge="1">
          <mxGeometry width="50" height="50" relative="1" as="geometry">
            <mxPoint x="2040" y="210" as="sourcePoint" />
            <mxPoint x="1810" y="110" as="targetPoint" />
            <Array as="points">
              <mxPoint x="2655" y="110" />
            </Array>
          </mxGeometry>
        </mxCell>
        <mxCell id="prmoluB_tdKV2MAW_gco-44" value="" style="endArrow=none;html=1;rounded=0;exitX=0.5;exitY=0;exitDx=0;exitDy=0;" parent="1" source="5FBSnZhW09hsRZuxZCIm-1" edge="1">
          <mxGeometry width="50" height="50" relative="1" as="geometry">
            <mxPoint x="3030" y="190" as="sourcePoint" />
            <mxPoint x="2650" y="110" as="targetPoint" />
            <Array as="points">
              <mxPoint x="3310" y="110" />
            </Array>
          </mxGeometry>
        </mxCell>
        <mxCell id="prmoluB_tdKV2MAW_gco-45" value="" style="endArrow=diamondThin;endFill=1;endSize=24;html=1;rounded=0;entryX=-0.003;entryY=0.824;entryDx=0;entryDy=0;entryPerimeter=0;exitX=0.022;exitY=0;exitDx=0;exitDy=0;exitPerimeter=0;" parent="1" target="DCq2Q7qNN7Um3mJ1h11l-45" edge="1" source="DCq2Q7qNN7Um3mJ1h11l-29">
          <mxGeometry width="160" relative="1" as="geometry">
            <mxPoint x="30" y="1080" as="sourcePoint" />
            <mxPoint x="340" y="250" as="targetPoint" />
            <Array as="points">
              <mxPoint x="30" y="324" />
            </Array>
          </mxGeometry>
        </mxCell>
        <mxCell id="prmoluB_tdKV2MAW_gco-46" value="" style="endArrow=none;html=1;rounded=0;exitX=0.75;exitY=0;exitDx=0;exitDy=0;" parent="1" source="ncd-dCcMfYq5TYh1mDFG-56" edge="1">
          <mxGeometry width="50" height="50" relative="1" as="geometry">
            <mxPoint x="510" y="980" as="sourcePoint" />
            <mxPoint x="30" y="1060" as="targetPoint" />
            <Array as="points">
              <mxPoint x="383" y="1060" />
            </Array>
          </mxGeometry>
        </mxCell>
        <mxCell id="prmoluB_tdKV2MAW_gco-47" value="" style="endArrow=diamondThin;endFill=1;endSize=24;html=1;rounded=0;entryX=0.722;entryY=1.053;entryDx=0;entryDy=0;entryPerimeter=0;exitX=0.905;exitY=-0.017;exitDx=0;exitDy=0;exitPerimeter=0;" parent="1" source="DCq2Q7qNN7Um3mJ1h11l-32" target="5FBSnZhW09hsRZuxZCIm-8" edge="1">
          <mxGeometry width="160" relative="1" as="geometry">
            <mxPoint x="959" y="980" as="sourcePoint" />
            <mxPoint x="890" y="830" as="targetPoint" />
            <Array as="points">
              <mxPoint x="890" y="1040" />
              <mxPoint x="959" y="1040" />
            </Array>
          </mxGeometry>
        </mxCell>
        <mxCell id="prmoluB_tdKV2MAW_gco-48" value="" style="endArrow=none;html=1;rounded=0;exitX=0.091;exitY=-0.027;exitDx=0;exitDy=0;exitPerimeter=0;" parent="1" source="ncd-dCcMfYq5TYh1mDFG-66" edge="1">
          <mxGeometry width="50" height="50" relative="1" as="geometry">
            <mxPoint x="750" y="930" as="sourcePoint" />
            <mxPoint x="960" y="1040" as="targetPoint" />
            <Array as="points">
              <mxPoint x="541" y="1040" />
            </Array>
          </mxGeometry>
        </mxCell>
        <mxCell id="prmoluB_tdKV2MAW_gco-49" value="" style="endArrow=diamondThin;endFill=1;endSize=24;html=1;rounded=0;entryX=0;entryY=0.75;entryDx=0;entryDy=0;entryPerimeter=0;exitX=0.547;exitY=0;exitDx=0;exitDy=0;exitPerimeter=0;" parent="1" source="DCq2Q7qNN7Um3mJ1h11l-35" target="5FBSnZhW09hsRZuxZCIm-16" edge="1">
          <mxGeometry width="160" relative="1" as="geometry">
            <mxPoint x="1610" y="1100" as="sourcePoint" />
            <mxPoint x="1570" y="320" as="targetPoint" />
            <Array as="points">
              <mxPoint x="1680" y="519" />
            </Array>
          </mxGeometry>
        </mxCell>
        <mxCell id="prmoluB_tdKV2MAW_gco-50" value="" style="endArrow=none;html=1;rounded=0;entryX=0.284;entryY=-0.029;entryDx=0;entryDy=0;exitX=0.994;exitY=0.133;exitDx=0;exitDy=0;exitPerimeter=0;entryPerimeter=0;" parent="1" target="ncd-dCcMfYq5TYh1mDFG-63" edge="1" source="DCq2Q7qNN7Um3mJ1h11l-35">
          <mxGeometry width="50" height="50" relative="1" as="geometry">
            <mxPoint x="1500" y="1040" as="sourcePoint" />
            <mxPoint x="1610" y="750" as="targetPoint" />
            <Array as="points">
              <mxPoint x="1840" y="1150" />
              <mxPoint x="1910" y="1150" />
            </Array>
          </mxGeometry>
        </mxCell>
        <mxCell id="prmoluB_tdKV2MAW_gco-51" value="" style="endArrow=diamondThin;endFill=1;endSize=24;html=1;rounded=0;entryX=0.893;entryY=1.016;entryDx=0;entryDy=0;entryPerimeter=0;exitX=0.482;exitY=0.02;exitDx=0;exitDy=0;exitPerimeter=0;" parent="1" source="ncd-dCcMfYq5TYh1mDFG-74" target="5FBSnZhW09hsRZuxZCIm-16" edge="1">
          <mxGeometry width="160" relative="1" as="geometry">
            <mxPoint x="2100" y="770" as="sourcePoint" />
            <mxPoint x="2260" y="770" as="targetPoint" />
            <Array as="points">
              <mxPoint x="2339" y="1030" />
              <mxPoint x="2280" y="1030" />
            </Array>
          </mxGeometry>
        </mxCell>
        <mxCell id="prmoluB_tdKV2MAW_gco-52" value="" style="endArrow=none;html=1;rounded=0;entryX=0.25;entryY=0;entryDx=0;entryDy=0;" parent="1" target="DCq2Q7qNN7Um3mJ1h11l-38" edge="1">
          <mxGeometry width="50" height="50" relative="1" as="geometry">
            <mxPoint x="2280" y="1030" as="sourcePoint" />
            <mxPoint x="2300" y="930" as="targetPoint" />
            <Array as="points">
              <mxPoint x="2565" y="1030" />
            </Array>
          </mxGeometry>
        </mxCell>
        <mxCell id="prmoluB_tdKV2MAW_gco-53" value="" style="endArrow=diamondThin;endFill=1;endSize=24;html=1;rounded=0;entryX=1.005;entryY=0.313;entryDx=0;entryDy=0;entryPerimeter=0;exitX=0.25;exitY=0;exitDx=0;exitDy=0;" parent="1" source="DCq2Q7qNN7Um3mJ1h11l-41" target="5FBSnZhW09hsRZuxZCIm-12" edge="1">
          <mxGeometry width="160" relative="1" as="geometry">
            <mxPoint x="2700" y="740" as="sourcePoint" />
            <mxPoint x="2860" y="740" as="targetPoint" />
            <Array as="points">
              <mxPoint x="3090" y="390" />
            </Array>
          </mxGeometry>
        </mxCell>
        <mxCell id="prmoluB_tdKV2MAW_gco-54" value="" style="endArrow=none;html=1;rounded=0;entryX=0.955;entryY=-0.071;entryDx=0;entryDy=0;entryPerimeter=0;" parent="1" target="ncd-dCcMfYq5TYh1mDFG-77" edge="1">
          <mxGeometry width="50" height="50" relative="1" as="geometry">
            <mxPoint x="3090" y="760" as="sourcePoint" />
            <mxPoint x="2800" y="720" as="targetPoint" />
            <Array as="points">
              <mxPoint x="2900" y="760" />
            </Array>
          </mxGeometry>
        </mxCell>
        <mxCell id="prmoluB_tdKV2MAW_gco-55" value="" style="endArrow=diamondThin;endFill=1;endSize=24;html=1;rounded=0;entryX=0.859;entryY=1.036;entryDx=0;entryDy=0;entryPerimeter=0;exitX=0.689;exitY=0.017;exitDx=0;exitDy=0;exitPerimeter=0;" parent="1" source="DCq2Q7qNN7Um3mJ1h11l-25" target="5FBSnZhW09hsRZuxZCIm-4" edge="1">
          <mxGeometry width="160" relative="1" as="geometry">
            <mxPoint x="3220" y="670" as="sourcePoint" />
            <mxPoint x="3380" y="670" as="targetPoint" />
          </mxGeometry>
        </mxCell>
        <mxCell id="prmoluB_tdKV2MAW_gco-56" value="" style="endArrow=none;html=1;rounded=0;exitX=0.758;exitY=0;exitDx=0;exitDy=0;exitPerimeter=0;" parent="1" source="ncd-dCcMfYq5TYh1mDFG-60" edge="1">
          <mxGeometry width="50" height="50" relative="1" as="geometry">
            <mxPoint x="3270" y="1180" as="sourcePoint" />
            <mxPoint x="3440" y="950" as="targetPoint" />
            <Array as="points">
              <mxPoint x="3270" y="950" />
            </Array>
          </mxGeometry>
        </mxCell>
        <mxCell id="ERrwd4I-CjajTg0AoX-Z-1" value="MapperInterface&amp;lt;DTO,CLASS&amp;gt;" style="swimlane;fontStyle=1;align=center;verticalAlign=top;childLayout=stackLayout;horizontal=1;startSize=26;horizontalStack=0;resizeParent=1;resizeParentMax=0;resizeLast=0;collapsible=1;marginBottom=0;whiteSpace=wrap;html=1;" vertex="1" parent="1">
          <mxGeometry x="1700" y="1030" width="310" height="90" as="geometry" />
        </mxCell>
        <mxCell id="ERrwd4I-CjajTg0AoX-Z-3" value="" style="line;strokeWidth=1;fillColor=none;align=left;verticalAlign=middle;spacingTop=-1;spacingLeft=3;spacingRight=3;rotatable=0;labelPosition=right;points=[];portConstraint=eastwest;strokeColor=inherit;" vertex="1" parent="ERrwd4I-CjajTg0AoX-Z-1">
          <mxGeometry y="26" width="310" height="8" as="geometry" />
        </mxCell>
        <mxCell id="ERrwd4I-CjajTg0AoX-Z-4" value="+convertDtoToObj(DTO dto): CLASS;&lt;br&gt;+converObjToDto(CLASS o): DTO;&lt;br&gt;+convertListDtoToListObj(List&amp;lt;DTO&amp;gt; list): List&amp;lt;CLASS&amp;gt;;" style="text;strokeColor=none;fillColor=none;align=left;verticalAlign=top;spacingLeft=4;spacingRight=4;overflow=hidden;rotatable=0;points=[[0,0.5],[1,0.5]];portConstraint=eastwest;whiteSpace=wrap;html=1;" vertex="1" parent="ERrwd4I-CjajTg0AoX-Z-1">
          <mxGeometry y="34" width="310" height="56" as="geometry" />
        </mxCell>
        <mxCell id="ERrwd4I-CjajTg0AoX-Z-6" value="" style="endArrow=block;dashed=1;endFill=0;endSize=12;html=1;rounded=0;entryX=-0.019;entryY=0.167;entryDx=0;entryDy=0;entryPerimeter=0;strokeColor=#FF0000;" edge="1" parent="1" target="ERrwd4I-CjajTg0AoX-Z-1">
          <mxGeometry width="160" relative="1" as="geometry">
            <mxPoint x="240" y="1020" as="sourcePoint" />
            <mxPoint x="1500" y="950" as="targetPoint" />
          </mxGeometry>
        </mxCell>
        <mxCell id="ERrwd4I-CjajTg0AoX-Z-7" value="" style="endArrow=none;dashed=1;html=1;rounded=0;exitX=0;exitY=0.25;exitDx=0;exitDy=0;strokeColor=#FF0000;" edge="1" parent="1" source="DCq2Q7qNN7Um3mJ1h11l-35">
          <mxGeometry width="50" height="50" relative="1" as="geometry">
            <mxPoint x="1150" y="1070" as="sourcePoint" />
            <mxPoint x="1510" y="1040" as="targetPoint" />
            <Array as="points">
              <mxPoint x="1510" y="1150" />
            </Array>
          </mxGeometry>
        </mxCell>
        <mxCell id="ERrwd4I-CjajTg0AoX-Z-8" value="" style="endArrow=none;dashed=1;html=1;rounded=0;strokeColor=#FF0000;exitX=0.57;exitY=-0.05;exitDx=0;exitDy=0;exitPerimeter=0;" edge="1" parent="1" source="DCq2Q7qNN7Um3mJ1h11l-32">
          <mxGeometry width="50" height="50" relative="1" as="geometry">
            <mxPoint x="1000" y="1090" as="sourcePoint" />
            <mxPoint x="820" y="1030" as="targetPoint" />
          </mxGeometry>
        </mxCell>
        <mxCell id="ERrwd4I-CjajTg0AoX-Z-9" value="" style="endArrow=none;dashed=1;html=1;rounded=0;strokeColor=#FF0000;exitX=0.957;exitY=-0.017;exitDx=0;exitDy=0;exitPerimeter=0;" edge="1" parent="1" source="DCq2Q7qNN7Um3mJ1h11l-29">
          <mxGeometry width="50" height="50" relative="1" as="geometry">
            <mxPoint x="240" y="1090" as="sourcePoint" />
            <mxPoint x="240" y="1020" as="targetPoint" />
          </mxGeometry>
        </mxCell>
        <mxCell id="ERrwd4I-CjajTg0AoX-Z-10" value="" style="endArrow=block;dashed=1;endFill=0;endSize=12;html=1;rounded=0;entryX=1.003;entryY=0.133;entryDx=0;entryDy=0;entryPerimeter=0;strokeColor=#FF0000;" edge="1" parent="1" target="ERrwd4I-CjajTg0AoX-Z-1">
          <mxGeometry width="160" relative="1" as="geometry">
            <mxPoint x="3480" y="980" as="sourcePoint" />
            <mxPoint x="2020" y="1020" as="targetPoint" />
            <Array as="points">
              <mxPoint x="2200" y="980" />
              <mxPoint x="2200" y="1040" />
            </Array>
          </mxGeometry>
        </mxCell>
        <mxCell id="ERrwd4I-CjajTg0AoX-Z-11" value="" style="endArrow=none;dashed=1;html=1;rounded=0;exitX=0.579;exitY=-0.033;exitDx=0;exitDy=0;exitPerimeter=0;strokeColor=#FF0000;" edge="1" parent="1" source="DCq2Q7qNN7Um3mJ1h11l-38">
          <mxGeometry width="50" height="50" relative="1" as="geometry">
            <mxPoint x="2310" y="1040" as="sourcePoint" />
            <mxPoint x="2624" y="980" as="targetPoint" />
          </mxGeometry>
        </mxCell>
        <mxCell id="ERrwd4I-CjajTg0AoX-Z-12" value="" style="endArrow=none;dashed=1;html=1;rounded=0;exitX=0.894;exitY=-0.017;exitDx=0;exitDy=0;exitPerimeter=0;strokeColor=#FF0000;" edge="1" parent="1" source="DCq2Q7qNN7Um3mJ1h11l-41">
          <mxGeometry width="50" height="50" relative="1" as="geometry">
            <mxPoint x="2910" y="1040" as="sourcePoint" />
            <mxPoint x="3210" y="980" as="targetPoint" />
          </mxGeometry>
        </mxCell>
        <mxCell id="ERrwd4I-CjajTg0AoX-Z-13" value="" style="endArrow=none;dashed=1;html=1;rounded=0;exitX=0.905;exitY=0.033;exitDx=0;exitDy=0;exitPerimeter=0;strokeColor=#FF0000;" edge="1" parent="1" source="DCq2Q7qNN7Um3mJ1h11l-25">
          <mxGeometry width="50" height="50" relative="1" as="geometry">
            <mxPoint x="3190" y="1090" as="sourcePoint" />
            <mxPoint x="3480" y="980" as="targetPoint" />
          </mxGeometry>
        </mxCell>
        <mxCell id="ERrwd4I-CjajTg0AoX-Z-14" value="DTOStock" style="swimlane;fontStyle=1;align=center;verticalAlign=top;childLayout=stackLayout;horizontal=1;startSize=26;horizontalStack=0;resizeParent=1;resizeParentMax=0;resizeLast=0;collapsible=1;marginBottom=0;whiteSpace=wrap;html=1;" vertex="1" parent="1">
          <mxGeometry x="1290" y="1295" width="260" height="130" as="geometry" />
        </mxCell>
        <mxCell id="ERrwd4I-CjajTg0AoX-Z-15" value="-idProduct :int&lt;br&gt;-total :int" style="text;strokeColor=none;fillColor=none;align=left;verticalAlign=top;spacingLeft=4;spacingRight=4;overflow=hidden;rotatable=0;points=[[0,0.5],[1,0.5]];portConstraint=eastwest;whiteSpace=wrap;html=1;" vertex="1" parent="ERrwd4I-CjajTg0AoX-Z-14">
          <mxGeometry y="26" width="260" height="44" as="geometry" />
        </mxCell>
        <mxCell id="ERrwd4I-CjajTg0AoX-Z-16" value="" style="line;strokeWidth=1;fillColor=none;align=left;verticalAlign=middle;spacingTop=-1;spacingLeft=3;spacingRight=3;rotatable=0;labelPosition=right;points=[];portConstraint=eastwest;strokeColor=inherit;" vertex="1" parent="ERrwd4I-CjajTg0AoX-Z-14">
          <mxGeometry y="70" width="260" height="8" as="geometry" />
        </mxCell>
        <mxCell id="ERrwd4I-CjajTg0AoX-Z-17" value="+DTOStock() :DTOStock;&lt;br&gt;+DTOStock(int idProduct,int total) :DTOStock&lt;br&gt;+Getters and setters" style="text;strokeColor=none;fillColor=none;align=left;verticalAlign=top;spacingLeft=4;spacingRight=4;overflow=hidden;rotatable=0;points=[[0,0.5],[1,0.5]];portConstraint=eastwest;whiteSpace=wrap;html=1;" vertex="1" parent="ERrwd4I-CjajTg0AoX-Z-14">
          <mxGeometry y="78" width="260" height="52" as="geometry" />
        </mxCell>
        <mxCell id="ERrwd4I-CjajTg0AoX-Z-18" value="DAOStockSQL" style="swimlane;fontStyle=1;align=center;verticalAlign=top;childLayout=stackLayout;horizontal=1;startSize=26;horizontalStack=0;resizeParent=1;resizeParentMax=0;resizeLast=0;collapsible=1;marginBottom=0;whiteSpace=wrap;html=1;" vertex="1" parent="1">
          <mxGeometry x="1030" y="1200" width="340" height="70" as="geometry" />
        </mxCell>
        <mxCell id="ERrwd4I-CjajTg0AoX-Z-19" value="" style="line;strokeWidth=1;fillColor=none;align=left;verticalAlign=middle;spacingTop=-1;spacingLeft=3;spacingRight=3;rotatable=0;labelPosition=right;points=[];portConstraint=eastwest;strokeColor=inherit;" vertex="1" parent="ERrwd4I-CjajTg0AoX-Z-18">
          <mxGeometry y="26" width="340" height="8" as="geometry" />
        </mxCell>
        <mxCell id="ERrwd4I-CjajTg0AoX-Z-20" value="-connect() :Connection;&lt;br&gt;-convertToList(ResultSet res,List&amp;lt;DTOStock&amp;gt; output) :void;" style="text;strokeColor=none;fillColor=none;align=left;verticalAlign=top;spacingLeft=4;spacingRight=4;overflow=hidden;rotatable=0;points=[[0,0.5],[1,0.5]];portConstraint=eastwest;whiteSpace=wrap;html=1;" vertex="1" parent="ERrwd4I-CjajTg0AoX-Z-18">
          <mxGeometry y="34" width="340" height="36" as="geometry" />
        </mxCell>
        <mxCell id="ERrwd4I-CjajTg0AoX-Z-21" value="Use" style="endArrow=open;endSize=12;dashed=1;html=1;rounded=0;entryX=0.75;entryY=0;entryDx=0;entryDy=0;exitX=1.012;exitY=0.306;exitDx=0;exitDy=0;exitPerimeter=0;strokeColor=#0335FF;" edge="1" parent="1" source="ERrwd4I-CjajTg0AoX-Z-20" target="ERrwd4I-CjajTg0AoX-Z-14">
          <mxGeometry width="160" relative="1" as="geometry">
            <mxPoint x="1280" y="1110" as="sourcePoint" />
            <mxPoint x="1283" y="1236" as="targetPoint" />
            <Array as="points">
              <mxPoint x="1490" y="1245" />
            </Array>
          </mxGeometry>
        </mxCell>
        <mxCell id="ERrwd4I-CjajTg0AoX-Z-22" value="" style="endArrow=none;dashed=1;html=1;rounded=0;strokeColor=#FF0000;entryX=0.624;entryY=1.139;entryDx=0;entryDy=0;entryPerimeter=0;" edge="1" parent="1" target="ERrwd4I-CjajTg0AoX-Z-20">
          <mxGeometry width="50" height="50" relative="1" as="geometry">
            <mxPoint x="1240" y="1560" as="sourcePoint" />
            <mxPoint x="1190" y="1230" as="targetPoint" />
          </mxGeometry>
        </mxCell>
        <mxCell id="ERrwd4I-CjajTg0AoX-Z-23" value="MapperStock" style="swimlane;fontStyle=1;align=center;verticalAlign=top;childLayout=stackLayout;horizontal=1;startSize=26;horizontalStack=0;resizeParent=1;resizeParentMax=0;resizeLast=0;collapsible=1;marginBottom=0;whiteSpace=wrap;html=1;" vertex="1" parent="1">
          <mxGeometry x="1220" y="1110" width="200" height="60" as="geometry" />
        </mxCell>
        <mxCell id="ERrwd4I-CjajTg0AoX-Z-24" value="" style="line;strokeWidth=1;fillColor=none;align=left;verticalAlign=middle;spacingTop=-1;spacingLeft=3;spacingRight=3;rotatable=0;labelPosition=right;points=[];portConstraint=eastwest;strokeColor=inherit;" vertex="1" parent="ERrwd4I-CjajTg0AoX-Z-23">
          <mxGeometry y="26" width="200" height="8" as="geometry" />
        </mxCell>
        <mxCell id="ERrwd4I-CjajTg0AoX-Z-25" value="&lt;div&gt;+MapperStock() :MapperStock;&lt;/div&gt;" style="text;strokeColor=none;fillColor=none;align=left;verticalAlign=top;spacingLeft=4;spacingRight=4;overflow=hidden;rotatable=0;points=[[0,0.5],[1,0.5]];portConstraint=eastwest;whiteSpace=wrap;html=1;" vertex="1" parent="ERrwd4I-CjajTg0AoX-Z-23">
          <mxGeometry y="34" width="200" height="26" as="geometry" />
        </mxCell>
        <mxCell id="ERrwd4I-CjajTg0AoX-Z-26" value="" style="endArrow=none;dashed=1;html=1;rounded=0;strokeColor=#FF0000;exitX=0.705;exitY=-0.033;exitDx=0;exitDy=0;exitPerimeter=0;" edge="1" parent="1" source="ERrwd4I-CjajTg0AoX-Z-23">
          <mxGeometry width="50" height="50" relative="1" as="geometry">
            <mxPoint x="1240" y="1050" as="sourcePoint" />
            <mxPoint x="1370" y="1040" as="targetPoint" />
          </mxGeometry>
        </mxCell>
        <mxCell id="ERrwd4I-CjajTg0AoX-Z-27" value="Stock" style="swimlane;fontStyle=1;align=center;verticalAlign=top;childLayout=stackLayout;horizontal=1;startSize=26;horizontalStack=0;resizeParent=1;resizeParentMax=0;resizeLast=0;collapsible=1;marginBottom=0;whiteSpace=wrap;html=1;" vertex="1" parent="1">
          <mxGeometry x="1100" y="850" width="240" height="130" as="geometry" />
        </mxCell>
        <mxCell id="ERrwd4I-CjajTg0AoX-Z-28" value="-product :Product&lt;br&gt;-total :int" style="text;strokeColor=none;fillColor=none;align=left;verticalAlign=top;spacingLeft=4;spacingRight=4;overflow=hidden;rotatable=0;points=[[0,0.5],[1,0.5]];portConstraint=eastwest;whiteSpace=wrap;html=1;" vertex="1" parent="ERrwd4I-CjajTg0AoX-Z-27">
          <mxGeometry y="26" width="240" height="44" as="geometry" />
        </mxCell>
        <mxCell id="ERrwd4I-CjajTg0AoX-Z-29" value="" style="line;strokeWidth=1;fillColor=none;align=left;verticalAlign=middle;spacingTop=-1;spacingLeft=3;spacingRight=3;rotatable=0;labelPosition=right;points=[];portConstraint=eastwest;strokeColor=inherit;" vertex="1" parent="ERrwd4I-CjajTg0AoX-Z-27">
          <mxGeometry y="70" width="240" height="8" as="geometry" />
        </mxCell>
        <mxCell id="ERrwd4I-CjajTg0AoX-Z-30" value="+Stock(Product product,int total) :Stock;&lt;br&gt;+Getters and setters&lt;br&gt;+changeTotal(int modification) :void;" style="text;strokeColor=none;fillColor=none;align=left;verticalAlign=top;spacingLeft=4;spacingRight=4;overflow=hidden;rotatable=0;points=[[0,0.5],[1,0.5]];portConstraint=eastwest;whiteSpace=wrap;html=1;" vertex="1" parent="ERrwd4I-CjajTg0AoX-Z-27">
          <mxGeometry y="78" width="240" height="52" as="geometry" />
        </mxCell>
        <mxCell id="ERrwd4I-CjajTg0AoX-Z-31" value="Use" style="endArrow=open;endSize=12;dashed=1;html=1;rounded=0;entryX=0.804;entryY=0.981;entryDx=0;entryDy=0;entryPerimeter=0;strokeColor=#0335FF;exitX=0.5;exitY=0;exitDx=0;exitDy=0;" edge="1" parent="1" source="ERrwd4I-CjajTg0AoX-Z-23" target="ERrwd4I-CjajTg0AoX-Z-30">
          <mxGeometry width="160" relative="1" as="geometry">
            <mxPoint x="1300" y="1100" as="sourcePoint" />
            <mxPoint x="1073" y="1196" as="targetPoint" />
          </mxGeometry>
        </mxCell>
        <mxCell id="ERrwd4I-CjajTg0AoX-Z-32" value="Use" style="endArrow=open;endSize=12;dashed=1;html=1;rounded=0;entryX=0.604;entryY=-0.008;entryDx=0;entryDy=0;entryPerimeter=0;exitX=1;exitY=0.25;exitDx=0;exitDy=0;strokeColor=#0335FF;" edge="1" parent="1" source="ERrwd4I-CjajTg0AoX-Z-23" target="ERrwd4I-CjajTg0AoX-Z-14">
          <mxGeometry width="160" relative="1" as="geometry">
            <mxPoint x="1070" y="1070" as="sourcePoint" />
            <mxPoint x="1073" y="1196" as="targetPoint" />
            <Array as="points">
              <mxPoint x="1450" y="1125" />
            </Array>
          </mxGeometry>
        </mxCell>
        <mxCell id="ERrwd4I-CjajTg0AoX-Z-34" value="" style="endArrow=diamondThin;endFill=1;endSize=24;html=1;rounded=0;entryX=-0.012;entryY=0.085;entryDx=0;entryDy=0;entryPerimeter=0;exitX=1;exitY=0.5;exitDx=0;exitDy=0;" edge="1" parent="1" source="ncd-dCcMfYq5TYh1mDFG-31" target="ERrwd4I-CjajTg0AoX-Z-27">
          <mxGeometry width="160" relative="1" as="geometry">
            <mxPoint x="750" y="950" as="sourcePoint" />
            <mxPoint x="910" y="950" as="targetPoint" />
          </mxGeometry>
        </mxCell>
        <mxCell id="ERrwd4I-CjajTg0AoX-Z-35" value="ControllerStock" style="swimlane;fontStyle=1;align=center;verticalAlign=top;childLayout=stackLayout;horizontal=1;startSize=26;horizontalStack=0;resizeParent=1;resizeParentMax=0;resizeLast=0;collapsible=1;marginBottom=0;whiteSpace=wrap;html=1;" vertex="1" parent="1">
          <mxGeometry x="1270" y="310" width="280" height="220" as="geometry" />
        </mxCell>
        <mxCell id="ERrwd4I-CjajTg0AoX-Z-36" value="-dao :DAOStockSQL&lt;br&gt;-mapper :MapperStock&lt;br&gt;-productCont :ControllerProduct" style="text;strokeColor=none;fillColor=none;align=left;verticalAlign=top;spacingLeft=4;spacingRight=4;overflow=hidden;rotatable=0;points=[[0,0.5],[1,0.5]];portConstraint=eastwest;whiteSpace=wrap;html=1;" vertex="1" parent="ERrwd4I-CjajTg0AoX-Z-35">
          <mxGeometry y="26" width="280" height="54" as="geometry" />
        </mxCell>
        <mxCell id="ERrwd4I-CjajTg0AoX-Z-37" value="" style="line;strokeWidth=1;fillColor=none;align=left;verticalAlign=middle;spacingTop=-1;spacingLeft=3;spacingRight=3;rotatable=0;labelPosition=right;points=[];portConstraint=eastwest;strokeColor=inherit;" vertex="1" parent="ERrwd4I-CjajTg0AoX-Z-35">
          <mxGeometry y="80" width="280" height="8" as="geometry" />
        </mxCell>
        <mxCell id="ERrwd4I-CjajTg0AoX-Z-38" value="+ControllerStock() :ControllerStock;&lt;br&gt;+Getters and setters&lt;br&gt;+addStock(int idProduct,int total) :void;&lt;br&gt;+removeByIdProduct(int idProduct) :void;&lt;br&gt;+modifyByIdProduct(int idProduct,int total) :void;&lt;br&gt;+getByIdProduct(int idProduct) :Stock;&lt;br&gt;+listAll() :List&amp;lt;Stock&amp;gt;;&lt;br&gt;+hasStock(int idProduct) :booelan;" style="text;strokeColor=none;fillColor=none;align=left;verticalAlign=top;spacingLeft=4;spacingRight=4;overflow=hidden;rotatable=0;points=[[0,0.5],[1,0.5]];portConstraint=eastwest;whiteSpace=wrap;html=1;" vertex="1" parent="ERrwd4I-CjajTg0AoX-Z-35">
          <mxGeometry y="88" width="280" height="132" as="geometry" />
        </mxCell>
        <mxCell id="ERrwd4I-CjajTg0AoX-Z-39" value="" style="endArrow=diamondThin;endFill=1;endSize=24;html=1;rounded=0;entryX=-0.007;entryY=0.778;entryDx=0;entryDy=0;entryPerimeter=0;exitX=1.002;exitY=0.17;exitDx=0;exitDy=0;exitPerimeter=0;" edge="1" parent="1" source="5FBSnZhW09hsRZuxZCIm-8" target="ERrwd4I-CjajTg0AoX-Z-36">
          <mxGeometry width="160" relative="1" as="geometry">
            <mxPoint x="1070" y="560" as="sourcePoint" />
            <mxPoint x="1230" y="560" as="targetPoint" />
          </mxGeometry>
        </mxCell>
        <mxCell id="ERrwd4I-CjajTg0AoX-Z-40" value="" style="endArrow=diamondThin;endFill=1;endSize=24;html=1;rounded=0;exitX=1;exitY=0.5;exitDx=0;exitDy=0;entryX=0;entryY=0.5;entryDx=0;entryDy=0;" edge="1" parent="1" source="DCq2Q7qNN7Um3mJ1h11l-45" target="5FBSnZhW09hsRZuxZCIm-6">
          <mxGeometry width="160" relative="1" as="geometry">
            <mxPoint x="420" y="390" as="sourcePoint" />
            <mxPoint x="580" y="390" as="targetPoint" />
          </mxGeometry>
        </mxCell>
        <mxCell id="ERrwd4I-CjajTg0AoX-Z-41" value="" style="endArrow=diamondThin;endFill=1;endSize=24;html=1;rounded=0;entryX=0.007;entryY=0.773;entryDx=0;entryDy=0;entryPerimeter=0;exitX=0.05;exitY=0.014;exitDx=0;exitDy=0;exitPerimeter=0;" edge="1" parent="1" source="ERrwd4I-CjajTg0AoX-Z-18" target="ERrwd4I-CjajTg0AoX-Z-38">
          <mxGeometry width="160" relative="1" as="geometry">
            <mxPoint x="1050" y="1120" as="sourcePoint" />
            <mxPoint x="1110" y="810" as="targetPoint" />
            <Array as="points">
              <mxPoint x="1050" y="500" />
            </Array>
          </mxGeometry>
        </mxCell>
        <mxCell id="ERrwd4I-CjajTg0AoX-Z-42" value="" style="endArrow=none;html=1;rounded=0;entryX=0;entryY=0.25;entryDx=0;entryDy=0;" edge="1" parent="1" target="ERrwd4I-CjajTg0AoX-Z-23">
          <mxGeometry width="50" height="50" relative="1" as="geometry">
            <mxPoint x="1050" y="1125" as="sourcePoint" />
            <mxPoint x="1120" y="1200" as="targetPoint" />
          </mxGeometry>
        </mxCell>
        <mxCell id="ERrwd4I-CjajTg0AoX-Z-43" value="Use" style="endArrow=open;endSize=12;dashed=1;html=1;rounded=0;entryX=0.25;entryY=0;entryDx=0;entryDy=0;strokeColor=#0335FF;exitX=0;exitY=0.902;exitDx=0;exitDy=0;exitPerimeter=0;" edge="1" parent="1" source="ERrwd4I-CjajTg0AoX-Z-38" target="ERrwd4I-CjajTg0AoX-Z-27">
          <mxGeometry width="160" relative="1" as="geometry">
            <mxPoint x="1100" y="560" as="sourcePoint" />
            <mxPoint x="1073" y="429" as="targetPoint" />
            <Array as="points">
              <mxPoint x="1160" y="520" />
            </Array>
          </mxGeometry>
        </mxCell>
        <mxCell id="ERrwd4I-CjajTg0AoX-Z-44" value="" style="endArrow=diamondThin;endFill=1;endSize=24;html=1;rounded=0;entryX=0.497;entryY=1.038;entryDx=0;entryDy=0;entryPerimeter=0;exitX=0.375;exitY=0.009;exitDx=0;exitDy=0;exitPerimeter=0;" edge="1" parent="1" source="ERrwd4I-CjajTg0AoX-Z-35" target="prmoluB_tdKV2MAW_gco-5">
          <mxGeometry width="160" relative="1" as="geometry">
            <mxPoint x="1210" y="230" as="sourcePoint" />
            <mxPoint x="1337" y="231" as="targetPoint" />
          </mxGeometry>
        </mxCell>
        <mxCell id="ERrwd4I-CjajTg0AoX-Z-45" value="" style="endArrow=diamondThin;endFill=1;endSize=24;html=1;rounded=0;entryX=0.89;entryY=-0.003;entryDx=0;entryDy=0;entryPerimeter=0;" edge="1" parent="1" target="5FBSnZhW09hsRZuxZCIm-13">
          <mxGeometry width="160" relative="1" as="geometry">
            <mxPoint x="3310" y="200" as="sourcePoint" />
            <mxPoint x="2490" y="200" as="targetPoint" />
            <Array as="points">
              <mxPoint x="2276" y="200" />
            </Array>
          </mxGeometry>
        </mxCell>
        <mxCell id="ERrwd4I-CjajTg0AoX-Z-46" value="" style="endArrow=diamondThin;endFill=1;endSize=24;html=1;rounded=0;entryX=-0.008;entryY=0.08;entryDx=0;entryDy=0;entryPerimeter=0;exitX=1.003;exitY=0.188;exitDx=0;exitDy=0;exitPerimeter=0;" edge="1" parent="1" source="5FBSnZhW09hsRZuxZCIm-14" target="5FBSnZhW09hsRZuxZCIm-10">
          <mxGeometry width="160" relative="1" as="geometry">
            <mxPoint x="2210" y="240" as="sourcePoint" />
            <mxPoint x="2370" y="240" as="targetPoint" />
          </mxGeometry>
        </mxCell>
        <mxCell id="ERrwd4I-CjajTg0AoX-Z-47" value="" style="endArrow=diamondThin;endFill=1;endSize=24;html=1;rounded=0;entryX=-0.005;entryY=0.146;entryDx=0;entryDy=0;entryPerimeter=0;exitX=1.002;exitY=-0.033;exitDx=0;exitDy=0;exitPerimeter=0;" edge="1" parent="1" source="5FBSnZhW09hsRZuxZCIm-6" target="5FBSnZhW09hsRZuxZCIm-14">
          <mxGeometry width="160" relative="1" as="geometry">
            <mxPoint x="1570" y="270" as="sourcePoint" />
            <mxPoint x="1569" y="201" as="targetPoint" />
          </mxGeometry>
        </mxCell>
        <mxCell id="ERrwd4I-CjajTg0AoX-Z-48" value="Model" style="html=1;whiteSpace=wrap;" vertex="1" parent="1">
          <mxGeometry x="660" y="50" width="190" height="50" as="geometry" />
        </mxCell>
        <mxCell id="ERrwd4I-CjajTg0AoX-Z-50" value="" style="endArrow=diamondThin;endFill=1;endSize=24;html=1;rounded=0;entryX=1;entryY=0.25;entryDx=0;entryDy=0;exitX=-0.009;exitY=0.06;exitDx=0;exitDy=0;exitPerimeter=0;" edge="1" parent="1" source="prmoluB_tdKV2MAW_gco-2" target="ERrwd4I-CjajTg0AoX-Z-48">
          <mxGeometry width="160" relative="1" as="geometry">
            <mxPoint x="910" y="230" as="sourcePoint" />
            <mxPoint x="1070" y="230" as="targetPoint" />
          </mxGeometry>
        </mxCell>
        <mxCell id="ERrwd4I-CjajTg0AoX-Z-53" value="" style="endArrow=none;dashed=1;html=1;dashPattern=1 3;strokeWidth=5;rounded=0;" edge="1" parent="1">
          <mxGeometry width="50" height="50" relative="1" as="geometry">
            <mxPoint x="10" y="600" as="sourcePoint" />
            <mxPoint x="3501" y="600" as="targetPoint" />
            <Array as="points">
              <mxPoint x="300" y="600" />
            </Array>
          </mxGeometry>
        </mxCell>
        <mxCell id="ERrwd4I-CjajTg0AoX-Z-54" value="" style="endArrow=none;dashed=1;html=1;rounded=0;strokeWidth=4;" edge="1" parent="1">
          <mxGeometry width="50" height="50" relative="1" as="geometry">
            <mxPoint x="10" y="1010" as="sourcePoint" />
            <mxPoint x="3490" y="1000" as="targetPoint" />
          </mxGeometry>
        </mxCell>
        <mxCell id="ERrwd4I-CjajTg0AoX-Z-55" value="ESTRUCTURA DEL DIAGRAMA:&lt;br&gt;VIEWS&lt;br&gt;CONTROLLERS&lt;br&gt;MODEL&lt;br&gt;MAPPER&lt;br&gt;DAO-DTO" style="html=1;whiteSpace=wrap;" vertex="1" parent="1">
          <mxGeometry x="20" y="20" width="250" height="110" as="geometry" />
        </mxCell>
      </root>
    </mxGraphModel>
  </diagram>
</mxfile>
